<svg width="12" height="12" viewBox="0 0 12 12" fill="none" xmlns="http://www.w3.org/2000/svg">
<path d="M-0.316283 13C-0.451503 13 -0.583692 12.9599 -0.696131 12.8848C-0.808571 12.8097 -0.896208 12.703 -0.947957 12.578C-0.999707 12.4531 -1.01324 12.3156 -0.986858 12.183C-0.960471 12.0504 -0.895345 11.9286 -0.799717 11.833L11.833 -0.799755C11.9612 -0.92797 12.1351 -1 12.3164 -1C12.4978 -1 12.6717 -0.92797 12.7999 -0.799755C12.9281 -0.67154 13.0001 -0.497644 13.0001 -0.31632C13.0001 -0.134997 12.9281 0.0388992 12.7999 0.167114L0.167152 12.7998C0.103724 12.8634 0.0283655 12.9138 -0.054597 12.9482C-0.13756 12.9825 -0.226491 13.0001 -0.316283 13Z" fill="#151616"/>
<path d="M12.3164 13C12.2266 13.0001 12.1377 12.9825 12.0547 12.9482C11.9718 12.9138 11.8964 12.8634 11.833 12.7998L-0.799755 0.167114C-0.92797 0.0388992 -1 -0.134997 -1 -0.31632C-1 -0.497644 -0.92797 -0.67154 -0.799755 -0.799755C-0.67154 -0.92797 -0.497644 -1 -0.31632 -1C-0.134997 -1 0.0388992 -0.92797 0.167114 -0.799755L12.7998 11.833C12.8955 11.9286 12.9606 12.0504 12.987 12.183C13.0134 12.3156 12.9998 12.4531 12.9481 12.578C12.8963 12.703 12.8087 12.8097 12.6963 12.8848C12.5838 12.9599 12.4516 13 12.3164 13Z" fill="#151616"/>
</svg>
