<svg width="25" height="26" viewBox="0 0 25 26" fill="none" xmlns="http://www.w3.org/2000/svg">
<g id="fi_1241017" clip-path="url(#clip0_460_296)">
<path id="Vector" d="M15.2002 10.7357H14.1224C14.1224 9.54338 13.6981 9.11912 12.5059 9.11912V8.0415C14.2909 8.0415 15.2002 8.9508 15.2002 10.7357Z" fill="#151616"/>
<path id="Vector_2" d="M17.3554 10.7358H16.2778C16.2778 8.33806 14.9038 6.96385 12.5059 6.96385V5.88623C15.4966 5.88623 17.3554 7.74528 17.3554 10.7358Z" fill="#151616"/>
<path id="Vector_3" d="M19.5109 10.7357H18.4333C18.4333 7.19287 16.0487 4.80853 12.5059 4.80853V3.73071C16.6954 3.73071 19.5109 6.54622 19.5109 10.7357Z" fill="#151616"/>
<path id="Vector_4" d="M7.11723 25.4999V21.782L5.96542 21.6473C3.21049 21.3104 1.05525 19.0474 0.839573 16.2657C0.718413 14.6221 0.651123 12.9383 0.651123 11.2746C0.651123 9.61092 0.718413 7.93382 0.839573 6.28354C1.05525 3.50178 3.25095 1.2319 6.05974 0.888345C10.3369 0.370552 14.6608 0.370552 18.9381 0.888345C21.7534 1.2319 23.9493 3.50178 24.1648 6.28354C24.2928 7.92691 24.3534 9.61092 24.3534 11.2746C24.3534 12.9383 24.2861 14.6221 24.1648 16.2657C23.956 19.0405 21.8006 21.3037 19.0525 21.6473C17.1282 21.8852 15.1922 22.0178 13.2532 22.0447L7.11723 25.4999ZM12.5055 1.57545C10.3961 1.57584 8.28838 1.70411 6.19432 1.95926C3.89089 2.24223 2.09242 4.09456 1.91739 6.37116C1.78932 7.98769 1.72874 9.63776 1.72874 11.2746C1.72874 12.9113 1.78932 14.5682 1.91739 16.1848C2.09341 18.4566 3.83998 20.293 6.10019 20.5831C6.63437 20.6504 7.1711 20.7088 7.70981 20.7581L8.20156 20.8053V23.6612L12.9704 20.9738H13.105C15.0507 20.9521 16.9936 20.8216 18.9245 20.5831C21.1675 20.307 22.9186 18.4547 23.0939 16.1915C23.2217 14.575 23.2825 12.918 23.2825 11.2813C23.2825 9.64447 23.2217 7.9944 23.0939 6.37116C22.9186 4.09456 21.1204 2.24223 18.81 1.95926C16.7181 1.7047 14.6128 1.57644 12.5055 1.57545Z" fill="#151616"/>
<path id="Vector_5" d="M14.6205 18.2794H14.1221C9.07041 18.2794 4.96181 14.1708 4.96181 9.11917V8.62072C4.95924 7.76115 5.30121 6.93631 5.91156 6.3307L6.35614 5.88612C7.04975 5.19231 8.26215 5.19231 8.95596 5.88612L10.3503 7.28045C10.6964 7.6242 10.8904 8.09247 10.889 8.58027C10.8874 9.06767 10.6938 9.53475 10.3503 9.88028L10.2222 10.0083C9.9584 10.273 9.8106 10.6315 9.81139 11.0051C9.81277 11.3784 9.96037 11.7362 10.2222 12.002L11.2326 13.0123C11.758 13.5378 12.7076 13.5378 13.2331 13.0123L13.361 12.8844C14.0548 12.1906 15.2672 12.1906 15.961 12.8844L17.3551 14.2853C18.073 15.0034 18.073 16.1672 17.3551 16.8853L16.9107 17.3299C16.3051 17.94 15.4803 18.282 14.6205 18.2794ZM7.65595 6.42503C7.45408 6.42463 7.26011 6.50455 7.11724 6.64722L6.67266 7.09181C6.26537 7.49614 6.03725 8.04688 6.03943 8.62072V9.11917C6.04317 13.5816 9.65984 17.1981 14.1221 17.2018H14.6205C15.1922 17.2024 15.7402 16.9743 16.1427 16.5688L16.5873 16.1242C16.7306 15.9813 16.8109 15.7875 16.8109 15.5853C16.8109 15.383 16.7306 15.1892 16.5873 15.0464L15.1999 13.6522C14.898 13.3647 14.424 13.3647 14.1221 13.6522L13.9942 13.7801C13.0212 14.7524 11.4445 14.7524 10.4715 13.7801L9.46113 12.7698C8.99523 12.3005 8.73377 11.6663 8.73377 11.0051C8.73278 10.3458 8.99444 9.71314 9.46113 9.24724L9.58919 9.11917C9.73107 8.97572 9.81099 8.78213 9.81139 8.58027C9.81178 8.3784 9.73186 8.18442 9.58919 8.04156L8.19486 6.64722C8.0518 6.50455 7.85802 6.42463 7.65595 6.42503Z" fill="#151616"/>
</g>
<defs>
<clipPath id="clip0_460_296">
<rect width="25" height="25" fill="white" transform="translate(0 0.5)"/>
</clipPath>
</defs>
</svg>
