<svg width="25" height="26" viewBox="0 0 25 26" fill="none" xmlns="http://www.w3.org/2000/svg">
<g id="fi_2564766">
<g id="telegram, social, media, network, chat">
<path id="Vector" d="M22.3363 3.85156C22.0941 3.64809 21.8011 3.51441 21.4886 3.46486C21.1762 3.41532 20.8562 3.45177 20.5629 3.57031L2.66446 10.7344C2.40355 10.8428 2.1806 11.026 2.02375 11.261C1.86691 11.496 1.7832 11.7722 1.7832 12.0547C1.7832 12.3372 1.86691 12.6134 2.02375 12.8484C2.1806 13.0834 2.40355 13.2666 2.66446 13.375L3.8207 13.8516C4.01135 13.9322 4.2262 13.9339 4.41809 13.8563C4.60998 13.7786 4.76321 13.628 4.84414 13.4375C4.88385 13.3426 4.90443 13.2408 4.9047 13.138C4.90497 13.0351 4.88494 12.9333 4.84574 12.8382C4.80655 12.7431 4.74896 12.6567 4.67629 12.5839C4.60362 12.5111 4.5173 12.4534 4.42227 12.4141L3.56289 12.0625L21.1488 5.03125C21.1759 5.01467 21.207 5.0059 21.2387 5.0059C21.2704 5.0059 21.3015 5.01467 21.3285 5.03125C21.354 5.0529 21.3733 5.08098 21.3842 5.11258C21.3952 5.14417 21.3976 5.17813 21.391 5.21094L18.1801 20.1953C18.1695 20.2487 18.1453 20.2984 18.1096 20.3395C18.074 20.3806 18.0283 20.4117 17.977 20.4297C17.9266 20.4497 17.8718 20.4559 17.8182 20.4476C17.7647 20.4394 17.7143 20.417 17.6723 20.3828L11.4223 15.5078L17.5395 9.32812C17.6701 9.19255 17.7474 9.01434 17.7572 8.82629C17.7669 8.63824 17.7084 8.453 17.5924 8.30468C17.4764 8.15635 17.3107 8.05491 17.1258 8.01902C16.941 7.98314 16.7494 8.01522 16.5863 8.10937L7.61758 13.4219C7.51797 13.4669 7.42891 13.5323 7.35616 13.6139C7.28342 13.6955 7.22861 13.7915 7.19528 13.8956C7.16195 13.9997 7.15084 14.1096 7.16266 14.2183C7.17449 14.327 7.20899 14.432 7.26393 14.5265C7.31888 14.621 7.39304 14.7029 7.48163 14.7669C7.57022 14.831 7.67127 14.8757 7.77823 14.8983C7.8852 14.9208 7.9957 14.9206 8.1026 14.8978C8.20951 14.8749 8.31042 14.8299 8.39883 14.7656L12.1723 12.5391L10.3363 14.4062C10.1684 14.5641 10.0374 14.7571 9.95281 14.9714C9.86822 15.1858 9.83209 15.4162 9.84703 15.6462C9.86196 15.8762 9.92758 16.1 10.0392 16.3017C10.1508 16.5033 10.3056 16.6777 10.4926 16.8125L16.7426 21.6172C17.0715 21.871 17.4755 22.0085 17.891 22.0078C18.1123 22.0062 18.3316 21.9666 18.5395 21.8906C18.8379 21.7835 19.1038 21.6015 19.3118 21.3621C19.5197 21.1227 19.6626 20.8339 19.727 20.5234L22.9145 5.55468C22.9821 5.24507 22.964 4.92286 22.8622 4.62275C22.7603 4.32264 22.5785 4.05601 22.3363 3.85156Z" fill="#BC3631"/>
</g>
</g>
</svg>
