<svg width="25" height="26" viewBox="0 0 25 26" fill="none" xmlns="http://www.w3.org/2000/svg">
<g id="fi_2190505" clip-path="url(#clip0_460_292)">
<path id="Vector" d="M4.61151 25.5C4.4858 25.5 4.36034 25.4672 4.24836 25.4021C4.03929 25.2807 3.90486 25.0627 3.89012 24.8213L3.86661 24.4366C3.84223 24.0382 4.14544 23.6955 4.54391 23.6711C4.76859 23.6569 4.97751 23.7487 5.11969 23.903C5.32413 23.9502 5.50631 24.0855 5.6061 24.2885C5.78216 24.6468 5.63448 25.0799 5.27624 25.2559L4.93029 25.4259C4.82954 25.4754 4.7204 25.5 4.61151 25.5Z" fill="#151616"/>
<path id="Vector_2" d="M7.55213 24.0553C7.28529 24.0553 7.02867 23.9069 6.90297 23.6513C6.72691 23.293 6.87454 22.8599 7.23277 22.6838L7.92183 22.3451C8.28012 22.1691 8.71319 22.3167 8.88929 22.675C9.06535 23.0332 8.91772 23.4664 8.55948 23.6424L7.87042 23.9811C7.76789 24.0315 7.65919 24.0553 7.55213 24.0553ZM11.6242 22.7672C11.606 22.7672 11.5877 22.7665 11.5693 22.7652C11.2988 22.7448 11.0259 22.7152 10.7582 22.677C10.3631 22.6206 10.0885 22.2545 10.1448 21.8594C10.2012 21.4642 10.5671 21.1896 10.9624 21.246C11.1984 21.2797 11.439 21.3058 11.6776 21.3237C12.0756 21.3536 12.3741 21.7005 12.3442 22.0985C12.3156 22.4782 11.9988 22.7672 11.6242 22.7672ZM14.491 22.6287C14.1462 22.6287 13.8409 22.3811 13.7798 22.0297C13.7113 21.6365 13.9746 21.2622 14.3679 21.1937C14.6034 21.1527 14.8401 21.1033 15.0715 21.0468C15.4591 20.9522 15.8503 21.1898 15.9451 21.5775C16.0397 21.9653 15.8021 22.3564 15.4143 22.4511C15.1517 22.5152 14.883 22.5713 14.6158 22.6179C14.5738 22.6252 14.5321 22.6287 14.491 22.6287ZM4.41158 22.2415C4.03263 22.2415 3.71438 21.9463 3.69092 21.5629L3.64394 20.7966C3.61951 20.3981 3.92268 20.0554 4.32115 20.031C4.7188 20.0057 5.06234 20.3097 5.08672 20.7082L5.1337 21.4745C5.15813 21.873 4.85496 22.2157 4.45649 22.2401C4.44146 22.241 4.42642 22.2415 4.41158 22.2415ZM17.9226 21.44C17.666 21.44 17.4175 21.303 17.2866 21.0616C17.0964 20.7107 17.2266 20.272 17.5775 20.0818C17.7868 19.9683 17.9948 19.8459 18.1958 19.7181C18.5327 19.5039 18.9793 19.6034 19.1935 19.9401C19.4077 20.2769 19.3083 20.7237 18.9715 20.9378C18.7424 21.0835 18.5052 21.2231 18.2665 21.3524C18.157 21.4118 18.0389 21.44 17.9226 21.44ZM20.7837 19.2069C20.6091 19.2069 20.4341 19.144 20.2954 19.0169C20.0012 18.7471 19.9814 18.2899 20.2511 17.9957C20.412 17.8203 20.568 17.6373 20.7149 17.4518C20.9628 17.139 21.4172 17.0862 21.7302 17.334C22.0431 17.5819 22.0959 18.0364 21.848 18.3493C21.6796 18.5619 21.5008 18.7716 21.3165 18.9726C21.174 19.128 20.9792 19.2069 20.7837 19.2069ZM3.81942 18.7521C3.60954 18.7521 3.40139 18.6611 3.25848 18.4857C3.08618 18.274 2.9198 18.0537 2.76393 17.8307C2.5353 17.5035 2.61514 17.0529 2.9423 16.8242C3.26932 16.5956 3.72002 16.6753 3.94874 17.0026C4.08442 17.1967 4.22931 17.3887 4.37945 17.573C4.63139 17.8826 4.5848 18.3378 4.27528 18.5899C4.14123 18.699 3.97982 18.7521 3.81942 18.7521ZM22.7323 16.1486C22.6412 16.1486 22.5486 16.1313 22.459 16.0946C22.0896 15.9435 21.9125 15.5215 22.0636 15.1521C22.1531 14.9333 22.2352 14.7082 22.3076 14.4833C22.4299 14.1033 22.837 13.8944 23.217 14.0166C23.597 14.1389 23.8059 14.5461 23.6836 14.926C23.5999 15.1861 23.505 15.4462 23.4016 15.6992C23.2871 15.9791 23.0171 16.1486 22.7323 16.1486ZM2.05579 15.5816C1.75518 15.5816 1.47447 15.3926 1.37189 15.0923C1.28347 14.8333 1.20407 14.5682 1.13589 14.3042C1.0361 13.9177 1.26844 13.5235 1.65491 13.4237C2.04119 13.3237 2.43557 13.5562 2.5354 13.9427C2.59447 14.1712 2.66318 14.4009 2.73979 14.6251C2.86878 15.0029 2.66713 15.4136 2.28938 15.5427C2.21205 15.5691 2.13322 15.5816 2.05579 15.5816ZM23.4738 12.5985C23.4678 12.5985 23.4618 12.5984 23.4557 12.5982C23.0567 12.5884 22.7411 12.257 22.751 11.858C22.7529 11.7796 22.7538 11.7011 22.7538 11.6224C22.7539 11.4634 22.7499 11.3026 22.7419 11.1441C22.7218 10.7455 23.0286 10.406 23.4273 10.3859C23.825 10.365 24.1655 10.6727 24.1855 11.0714C24.1947 11.2541 24.1994 11.4396 24.1993 11.6226C24.1993 11.7125 24.1982 11.8037 24.196 11.8935C24.1863 12.2865 23.8647 12.5985 23.4738 12.5985ZM1.524 11.9938C1.51562 11.9938 1.50723 11.9937 1.49885 11.9934C1.09994 11.9798 0.787576 11.6453 0.801211 11.2464C0.810559 10.9729 0.830458 10.6969 0.860428 10.4258C0.904274 10.0291 1.26184 9.74307 1.65819 9.78682C2.05492 9.83066 2.34103 10.1878 2.29719 10.5846C2.27126 10.8195 2.25397 11.0587 2.24587 11.2958C2.23248 11.6863 1.91172 11.9938 1.524 11.9938ZM22.9123 9.0157C22.6139 9.0157 22.3347 8.82957 22.2303 8.53209C22.1522 8.30954 22.0643 8.08669 21.9689 7.86973C21.8082 7.50436 21.9742 7.07789 22.3396 6.9172C22.7049 6.75661 23.1314 6.92246 23.2921 7.28792C23.4023 7.53857 23.504 7.79615 23.5943 8.0535C23.7264 8.43009 23.5282 8.84258 23.1515 8.97475C23.0724 9.00255 22.9917 9.0157 22.9123 9.0157ZM2.29892 8.45124C2.20554 8.45124 2.11057 8.43303 2.01903 8.39453C1.6511 8.23977 1.47827 7.81605 1.63299 7.44808C1.73875 7.19662 1.85569 6.94582 1.98053 6.7027C2.16285 6.34764 2.59857 6.20767 2.95363 6.38994C3.30868 6.57226 3.4487 7.00793 3.26638 7.36304C3.15826 7.5736 3.05698 7.79076 2.96543 8.00849C2.84921 8.28497 2.58108 8.45124 2.29892 8.45124ZM21.1168 5.86398C20.9097 5.86398 20.7041 5.77542 20.5612 5.60384C20.4097 5.42205 20.2489 5.24252 20.0832 5.07032C19.8064 4.78266 19.8152 4.32517 20.1028 4.04841C20.3905 3.77165 20.848 3.78047 21.1247 4.06807C21.3143 4.26504 21.4983 4.47049 21.6718 4.67869C21.9273 4.98537 21.8857 5.44108 21.5791 5.69655C21.444 5.80905 21.2799 5.86398 21.1168 5.86398ZM4.27706 5.41102C4.10037 5.41102 3.9234 5.34669 3.78405 5.21665C3.49226 4.94432 3.4765 4.48692 3.74888 4.19517C3.93096 4.00003 4.12331 3.80783 4.32052 3.62392L4.33155 3.61366C4.62561 3.34364 5.08282 3.36316 5.35274 3.65707C5.62275 3.95108 5.60329 4.40829 5.30932 4.67825C5.1336 4.84217 4.96501 5.01057 4.80562 5.18138C4.66324 5.33392 4.47037 5.41102 4.27706 5.41102ZM18.3593 3.5012C18.2321 3.5012 18.1035 3.46771 17.9867 3.39727C17.7832 3.27455 17.5723 3.15718 17.3599 3.04843C17.0046 2.86654 16.8641 2.43106 17.046 2.07572C17.2278 1.72037 17.6634 1.57977 18.0187 1.76176C18.2608 1.88568 18.5012 2.01954 18.7332 2.15946C19.0751 2.36558 19.185 2.80983 18.9789 3.15163C18.8432 3.37665 18.6042 3.5012 18.3593 3.5012ZM7.15968 3.20391C6.9008 3.20391 6.65049 3.06442 6.52064 2.81985C6.33354 2.46725 6.46763 2.02975 6.82028 1.84261C7.0597 1.71555 7.30698 1.59509 7.55517 1.48461C7.92005 1.32228 8.34714 1.48644 8.50937 1.85099C8.67165 2.21569 8.50764 2.64292 8.14299 2.8052C7.92506 2.90219 7.70805 3.00791 7.49792 3.1194C7.3899 3.17669 7.27397 3.20391 7.15968 3.20391ZM14.9872 2.15936C14.9358 2.15936 14.8836 2.15387 14.8313 2.1423C14.5986 2.09113 14.3606 2.04714 14.124 2.01154C13.7292 1.95218 13.4574 1.58406 13.5168 1.18935C13.5761 0.794684 13.9441 0.522934 14.3389 0.58215C14.6074 0.622527 14.8776 0.672493 15.1417 0.730601C15.5316 0.816318 15.7781 1.20183 15.6923 1.59167C15.6181 1.92929 15.3191 2.15936 14.9872 2.15936ZM10.5988 2.04541C10.2514 2.04541 9.94507 1.79428 9.88663 1.44024C9.82163 1.04639 10.0882 0.67442 10.482 0.60947C10.7482 0.565527 11.0201 0.52992 11.2901 0.503564C11.6874 0.464247 12.0409 0.755415 12.0797 1.15268C12.1184 1.54995 11.8278 1.90341 11.4305 1.9422C11.1921 1.96547 10.9522 1.99694 10.7173 2.03568C10.6775 2.04223 10.6379 2.04541 10.5988 2.04541Z" fill="#151616"/>
<path id="Vector_3" d="M7.5258 20.4865C7.40014 20.4865 7.27467 20.4538 7.16269 20.3887C6.95363 20.2672 6.8192 20.0493 6.80441 19.808L6.65697 17.4015C4.97053 15.9003 4.00977 13.8116 4.00977 11.6225C4.00977 7.23131 7.81711 3.6589 12.4969 3.6589C17.1768 3.6589 20.9841 7.23135 20.9841 11.6225C20.9841 16.0136 17.1768 19.5861 12.4969 19.5861C11.6991 19.5861 10.9119 19.4827 10.1524 19.2782L7.84457 20.4124C7.74392 20.462 7.63474 20.4865 7.5258 20.4865ZM12.497 5.10433C8.61415 5.10433 5.45529 8.02835 5.45529 11.6224C5.45529 13.4811 6.3169 15.2568 7.81918 16.4939C7.97399 16.6214 8.06891 16.8075 8.08115 17.0076L8.18094 18.6365L9.76494 17.858C9.92958 17.777 10.1189 17.7618 10.2944 17.8153C11.0028 18.0311 11.7439 18.1406 12.497 18.1406C16.3799 18.1406 19.5387 15.2165 19.5387 11.6224C19.5387 8.02835 16.3798 5.10433 12.497 5.10433Z" fill="#151616"/>
</g>
<defs>
<clipPath id="clip0_460_292">
<rect width="25" height="25" fill="white" transform="translate(0 0.5)"/>
</clipPath>
</defs>
</svg>
