<svg width="240" height="48" viewBox="0 0 240 48" fill="none" xmlns="http://www.w3.org/2000/svg">
<g clip-path="url(#clip0_460_248)">
<path d="M30.1333 2.42695C30.1333 3.7483 30.0267 4.58426 29.8667 4.58426C29.7067 4.58426 28.9867 5.12358 28.2933 5.79774L27.0133 7.01122L19.5733 5.68988C15.4667 4.96178 12.0533 4.44942 11.9733 4.53032C11.8667 4.63819 9.17332 10.5977 5.97332 17.7708L0.159988 30.7955L1.06666 32.6022C3.27999 36.9977 8.50665 40.1798 13.4667 40.1798C18.56 40.1798 23.84 36.809 26 32.1708L26.6667 30.7685L21.8667 20.0629C19.2267 14.1573 17.12 9.30336 17.1733 9.24943C17.2533 9.14156 23.3067 10.1393 25.8933 10.6786C26.3733 10.7595 26.6667 11.0831 26.9067 11.7303C28.2933 15.6135 33.0133 16.5573 36.0267 13.591L36.9867 12.6472L41.8133 13.5101C44.48 13.9955 46.6667 14.4809 46.6667 14.5888C46.6667 14.6966 44.4 19.8472 41.6267 26.0494L36.5867 37.3483L37.4933 39.1011C41.76 47.3258 52.64 49.1326 59.3867 42.7685C61.0933 41.1775 62.9333 38.2921 62.9333 37.3213C62.9067 37.0517 60.3467 31.1191 57.2267 24.1348L51.5467 11.4607L45.5733 10.355C42.2933 9.76179 39.1733 9.16853 38.64 9.06066C37.7867 8.89886 37.5733 8.7101 36.96 7.41572C36.4267 6.36403 35.8933 5.74381 35.0667 5.20448L33.8933 4.44942L33.8667 2.34605V0.26965H32H30.1333V2.42695ZM33.4133 8.57527C34.5067 9.54605 33.5733 11.5955 32.0267 11.5955C30.08 11.5955 29.4933 8.81797 31.28 8.08987C31.9733 7.82021 32.7467 7.98201 33.4133 8.57527ZM18.5333 21.6539C20.6933 26.5079 22.4 30.5528 22.3467 30.6067C22.2667 30.6876 18.1867 30.7146 13.2533 30.6876L4.31999 30.6067L8.10665 22.1124C10.1867 17.4472 12.24 12.8899 12.64 12L13.3867 10.382L13.9733 11.5955C14.32 12.2696 16.3733 16.8 18.5333 21.6539ZM54.4 26.8854C56.8267 32.3056 58.8533 36.8629 58.88 36.9708C58.9333 37.1056 54.88 37.2135 49.8667 37.2135C44.2667 37.2135 40.8 37.1056 40.8533 36.9708C41.2 35.8921 49.76 16.9888 49.8667 16.9888C49.9467 16.9888 51.9733 21.4382 54.4 26.8854ZM18.56 35.0292C16.24 36.5663 12 36.782 9.25332 35.5146C8.39999 35.1371 7.73332 34.7595 7.73332 34.6786C7.73332 34.5708 10.3467 34.5168 13.5467 34.5168H19.3333L18.56 35.0292ZM55.1733 41.3932C54.4267 42.1483 51.84 42.8764 49.8667 42.8764C47.9467 42.8764 45.68 42.2562 44.48 41.4202C43.92 41.0157 44.2933 40.9888 49.7333 40.9888C54.9333 40.9888 55.5467 41.0427 55.1733 41.3932Z" fill="#BC3631"/>
<path d="M71.4668 4.44945V8.60226L74.8801 8.68316L78.2668 8.76406L78.3468 9.49215C78.4268 10.1933 78.5334 10.2472 79.6268 10.2472H80.8268L80.7468 8.4135C80.6668 6.66069 80.6401 6.60676 79.9468 6.52586L79.2001 6.44496V3.34384V0.269678H78.0001H76.8001V3.3708V6.47193H75.3334H73.8668V3.3708V0.269678H72.6668H71.4668V4.44945Z" fill="#151616"/>
<path d="M83.4666 4.44945V8.62923H86.2666H89.0666V7.55057V6.47192H87.4399C86.0533 6.47192 85.8399 6.41799 85.9199 5.98653C85.9733 5.63597 86.3199 5.50114 87.2799 5.4472C88.5066 5.36631 88.5333 5.33934 88.5333 4.42248V3.50563H87.1999C86.0533 3.50563 85.8666 3.42473 85.8666 2.9663C85.8666 2.48091 86.0533 2.42698 87.4666 2.42698H89.0666V1.34833V0.269675H86.2666H83.4666V4.44945Z" fill="#151616"/>
<path d="M91.9999 4.44945V8.62923H93.1999H94.3999V7.14608V5.66293H95.7332H97.0665V7.14608V8.62923H98.2665H99.4665V4.44945V0.269675H98.2665H97.0665V1.88765V3.50563H95.7332H94.3999V1.88765V0.269675H93.1999H91.9999V4.44945Z" fill="#151616"/>
<path d="M102.133 1.34833V2.42698H103.2H104.267V5.5281V8.62923H105.467H106.667V5.5281V2.42698H107.733H108.8V1.34833V0.269675H105.467H102.133V1.34833Z" fill="#151616"/>
<path d="M111.467 4.44945V8.62923H112.667H113.867V7.44271V6.28316L115.413 6.12136C117.36 5.90563 118.4 4.90788 118.4 3.209C118.4 0.997766 117.227 0.269675 113.547 0.269675H111.467V4.44945ZM115.573 2.50788C116.4 3.10114 116 3.91013 114.853 3.99102C113.893 4.07192 113.867 4.07192 113.867 3.1281C113.867 2.29215 113.947 2.15732 114.48 2.15732C114.827 2.15732 115.307 2.31911 115.573 2.50788Z" fill="#151616"/>
<path d="M142.773 16.5573C142.48 17.3124 142.8 17.9326 143.44 17.9326C144.293 17.9326 144.746 17.1775 144.293 16.6112C143.84 16.0719 142.96 16.0449 142.773 16.5573Z" fill="#151616"/>
<path d="M145.627 16.5573C145.067 17.2315 145.52 18.1213 146.347 18.0135C146.96 17.9596 147.067 17.7978 147.067 17.1236C147.067 16.5034 146.933 16.2876 146.507 16.2337C146.213 16.1798 145.813 16.3416 145.627 16.5573Z" fill="#151616"/>
<path d="M113.2 19.5236C111.173 20.7641 110.48 23.0292 111.52 25.0517C112.24 26.4809 113.12 27.182 114.56 27.5056C117.493 28.1798 120.133 26.1034 120.08 23.1371C120.027 19.7933 116.133 17.7438 113.2 19.5236ZM116.987 21.627C117.787 22.5438 117.947 23.3259 117.493 24.2158C116.347 26.454 112.853 25.1596 113.467 22.7326C113.867 21.1416 115.947 20.4944 116.987 21.627Z" fill="#151616"/>
<path d="M134.32 19.4157C131.973 20.7101 131.306 23.8922 132.986 25.9146C133.946 27.0472 135.12 27.5865 136.693 27.5865C141.093 27.5865 142.72 22.2742 139.146 19.6045C138.053 18.7955 135.626 18.7146 134.32 19.4157ZM137.813 21.4652C139.76 22.8405 138.426 25.8607 136.106 25.4023C135.253 25.2405 134.4 24.1348 134.4 23.191C134.4 22.2472 135.573 21.0337 136.506 21.0337C136.906 21.0337 137.493 21.2225 137.813 21.4652Z" fill="#151616"/>
<path d="M168.8 19.173C167.893 19.5506 166.667 20.7371 166.347 21.573C165.227 24.5124 167.307 27.5865 170.48 27.5865C173.813 27.5865 175.947 24.6742 174.8 21.6809C173.973 19.4427 171.093 18.2562 168.8 19.173ZM171.76 21.3843C172.853 22.2202 173.067 23.5686 172.267 24.5933C171.253 25.9146 169.12 25.591 168.587 24.027C168.24 23.0562 168.373 22.5169 169.147 21.627C169.76 20.9798 171.067 20.845 171.76 21.3843Z" fill="#151616"/>
<path d="M190.133 19.4427C186.613 21.4921 187.387 26.6157 191.36 27.5056C196.4 28.6652 199.12 21.9775 194.64 19.4427C193.36 18.6876 191.387 18.7146 190.133 19.4427ZM193.813 21.573C194.613 22.3281 194.773 23.245 194.293 24.2157C193.76 25.2944 192.64 25.6719 191.52 25.1865C189.387 24.2966 190.08 21.0337 192.4 21.0337C192.88 21.0337 193.493 21.2764 193.813 21.573Z" fill="#151616"/>
<path d="M214.533 19.2539C213.44 19.7393 212 21.4382 211.946 22.3281C211.84 24.6472 212.346 25.8337 213.866 26.8584C215.866 28.2068 218.666 27.7214 220.106 25.8068C222.8 22.2202 218.72 17.4202 214.533 19.2539ZM217.813 21.573C219.066 22.7596 218.8 24.5393 217.28 25.1865C216.16 25.6719 215.04 25.2944 214.506 24.2157C213.44 22.1393 216.133 20.009 217.813 21.573Z" fill="#151616"/>
<path d="M71.4668 23.3258V27.5056H72.6668H73.8668V24.4045V21.3034H75.3334H76.8001V24.4045V27.5056H78.0001H79.2001V23.3258V19.1461H75.3334H71.4668V23.3258Z" fill="#151616"/>
<path d="M82.1332 23.3258V27.5056H83.3332H84.5332V26.1573V24.809H85.7332C87.9466 24.809 89.0666 23.7573 89.0666 21.7079C89.0666 20.9798 88.8532 20.5213 88.2932 19.9281C87.5199 19.173 87.4399 19.1461 84.8266 19.1461H82.1332V23.3258ZM86.6132 21.8157C86.7199 22.5708 86.2932 22.9213 85.2799 22.9213C84.6132 22.9213 84.5332 22.8404 84.5332 21.9506C84.5332 21.0067 84.5599 21.0067 85.5466 21.0876C86.3466 21.1416 86.5599 21.2764 86.6132 21.8157Z" fill="#151616"/>
<path d="M92.0532 23.1641C91.1466 25.4023 90.3999 27.2899 90.3999 27.3708C90.3999 27.4517 90.9332 27.5056 91.5732 27.5056C92.5866 27.5056 92.7732 27.4247 92.9066 26.8315C93.0666 26.2112 93.1732 26.1573 94.7999 26.1573C96.4266 26.1573 96.5599 26.2112 96.7999 26.8315C97.0132 27.3978 97.2266 27.5056 98.1332 27.5056C99.4399 27.5056 99.4932 27.9371 97.4932 22.9214L96.0532 19.2809L94.8799 19.2L93.6799 19.1191L92.0532 23.1641ZM95.5732 23.6494C95.7599 24.2157 95.6799 24.2697 94.8532 24.2697H93.9199L94.3732 23.0562C94.7732 21.9236 94.7999 21.8966 95.0932 22.4629C95.2532 22.7865 95.4932 23.3259 95.5732 23.6494Z" fill="#151616"/>
<path d="M101.6 23.3258V27.5056H104C106.613 27.5056 108.027 27.1011 108.507 26.2112C108.96 25.3483 108.853 24.0539 108.293 23.4876C107.813 23.0022 107.787 22.8944 108.16 22.1663C108.427 21.573 108.48 21.1685 108.293 20.6831C107.813 19.4427 107.04 19.1461 104.213 19.1461H101.6V23.3258ZM105.867 21.1685C106.32 21.7079 105.947 22.1124 104.907 22.1933C104.24 22.2472 104.133 22.1393 104.053 21.4921C103.973 20.8449 104.053 20.764 104.747 20.764C105.173 20.764 105.68 20.9528 105.867 21.1685ZM106.08 24.2427C106.293 24.3775 106.4 24.7011 106.347 24.9708C106.293 25.3483 106 25.5101 105.12 25.564C104.027 25.6449 104 25.618 104 24.836C104 24.0809 104.08 24 104.88 24C105.333 24 105.893 24.1079 106.08 24.2427Z" fill="#151616"/>
<path d="M122.667 23.3258V27.5056H125.04C126.32 27.5056 127.76 27.3708 128.24 27.209C129.76 26.6697 130.373 24.5124 129.307 23.4337C128.907 23.0292 128.827 22.7865 129.04 22.5708C129.2 22.409 129.333 21.8157 129.333 21.2764C129.333 20.4944 129.173 20.1169 128.64 19.7124C128.027 19.227 127.547 19.1461 125.307 19.1461H122.667V23.3258ZM126.933 21.1685C127.387 21.7079 127.013 22.1124 125.973 22.1933C125.307 22.2472 125.2 22.1393 125.12 21.4921C125.04 20.8449 125.12 20.764 125.813 20.764C126.24 20.764 126.747 20.9528 126.933 21.1685ZM127.147 24.2427C127.36 24.3775 127.467 24.7011 127.413 24.9708C127.36 25.3483 127.067 25.5101 126.187 25.564C125.093 25.6449 125.067 25.618 125.067 24.836C125.067 24.0809 125.147 24 125.947 24C126.4 24 126.96 24.1079 127.147 24.2427Z" fill="#151616"/>
<path d="M143.733 23.3258V27.5056H144.933H146.133V23.3258V19.1461H144.933H143.733V23.3258Z" fill="#151616"/>
<path d="M156.267 20.6832C156.24 22.9214 155.867 24.3236 155.093 24.9438C154.48 25.4562 154.4 25.6989 154.4 27.3169V29.1236H155.6C156.747 29.1236 156.8 29.0966 156.8 28.3146V27.5056H159.2H161.6V28.3146C161.6 29.0966 161.653 29.1236 162.8 29.1236H164V27.236C164 25.4023 163.973 25.3483 163.333 25.3483H162.667V22.2472V19.1461H159.467H156.267V20.6832ZM160.267 23.3259V25.3483H159.04C157.973 25.3483 157.84 25.2944 158 24.8629C158.107 24.6202 158.267 23.7034 158.347 22.8405L158.453 21.3034H159.36H160.267V23.3259Z" fill="#151616"/>
<path d="M177.6 23.3258V27.5056H178.8H180V24.4045V21.3034H181.467H182.933V24.4045V27.5056H184.133H185.333V23.3258V19.1461H181.467H177.6V23.3258Z" fill="#151616"/>
<path d="M200 19.4157C200 19.7124 199.573 24 199.333 26.2112L199.173 27.5056H200.373H201.547L201.733 25.6719C201.813 24.6742 201.92 23.6764 201.973 23.4607C202 23.2449 202.347 24.027 202.72 25.2135L203.413 27.3708H204.427H205.44L206.133 25.2135L206.8 23.0562L207.04 25.2674L207.28 27.5056H208.427C209.067 27.5056 209.6 27.4247 209.6 27.2899C209.6 27.182 209.413 25.4022 209.2 23.3258C208.987 21.2494 208.8 19.4427 208.8 19.3348C208.8 19.227 208.24 19.1461 207.573 19.2L206.347 19.2809L205.387 21.6809C204.64 23.6225 204.4 24 204.213 23.5685C204.107 23.2989 203.653 22.1933 203.253 21.1685L202.507 19.2809L201.253 19.2C200.48 19.1461 200 19.227 200 19.4157Z" fill="#151616"/>
<path d="M223.467 23.3258V27.5056H224.667H225.867V24.4045V21.3034H227.467H229.067V20.2247V19.1461H226.267H223.467V23.3258Z" fill="#151616"/>
<path d="M231.733 23.3258V27.5056H232.906H234.106L235.706 25.1595L237.333 22.8404V25.1595V27.5056H238.533H239.733V23.3258V19.1461H238.48L237.2 19.173L235.733 21.3573L234.266 23.5416L234.186 21.3303L234.106 19.1461H232.933H231.733V23.3258Z" fill="#151616"/>
<path d="M71.4668 34.9214C71.4668 35.2719 80.9868 35.3259 155.6 35.3259C230.213 35.3259 239.733 35.2719 239.733 34.9214C239.733 34.5708 230.213 34.5169 155.6 34.5169C80.9868 34.5169 71.4668 34.5708 71.4668 34.9214Z" fill="#BC3631"/>
<path d="M71.8311 43.6436V38.8925H75.3061V39.3201H72.3265V40.8744H73.8808C74.4419 40.8744 74.8672 40.9898 75.1568 41.2205C75.4509 41.4468 75.598 41.7816 75.598 42.225C75.598 42.682 75.4396 43.0327 75.1229 43.2771C74.8107 43.5214 74.3604 43.6436 73.7722 43.6436H71.8311ZM72.3265 43.2431H73.7654C74.2043 43.2431 74.5346 43.1594 74.7564 42.992C74.9826 42.8201 75.0957 42.5712 75.0957 42.2454C75.0957 41.5984 74.6523 41.2748 73.7654 41.2748H72.3265V43.2431Z" fill="#151616"/>
<path d="M77.7467 41.0169H80.258V41.4445H77.7467V41.0169ZM77.801 43.2092H80.6584V43.6436H77.2987V38.8925H80.5566V39.3269H77.801V43.2092Z" fill="#151616"/>
<path d="M81.7524 43.0734L81.9356 42.7137C82.1438 42.8947 82.3768 43.0305 82.6347 43.1209C82.8971 43.2069 83.1596 43.2522 83.422 43.2567C83.6844 43.2567 83.9243 43.2182 84.1414 43.1413C84.3632 43.0644 84.5419 42.9513 84.6776 42.802C84.8134 42.6481 84.8812 42.4626 84.8812 42.2454C84.8812 41.9694 84.7704 41.7567 84.5487 41.6074C84.3315 41.4581 84.0283 41.3834 83.6392 41.3834H82.6211V40.9762H83.612C83.9469 40.9762 84.2071 40.9061 84.3926 40.7658C84.5826 40.621 84.6776 40.4219 84.6776 40.1685C84.6776 39.9875 84.6233 39.8337 84.5147 39.707C84.4107 39.5758 84.2659 39.4762 84.0804 39.4084C83.8994 39.336 83.6958 39.2975 83.4695 39.293C83.2433 39.2839 83.008 39.3133 82.7636 39.3812C82.5238 39.4446 82.2908 39.5464 82.0646 39.6866L81.9017 39.2726C82.1822 39.1052 82.4741 38.9898 82.7772 38.9265C83.0804 38.8586 83.3745 38.836 83.6596 38.8586C83.9446 38.8812 84.2003 38.9468 84.4265 39.0554C84.6573 39.164 84.8405 39.3066 84.9763 39.483C85.112 39.6595 85.1799 39.8699 85.1799 40.1142C85.1799 40.3405 85.1211 40.5396 85.0034 40.7115C84.8903 40.8834 84.7297 41.0169 84.5215 41.1119C84.3179 41.2024 84.0758 41.2477 83.7953 41.2477L83.8224 41.0984C84.1392 41.0984 84.4129 41.1481 84.6437 41.2477C84.879 41.3472 85.06 41.4898 85.1867 41.6753C85.3179 41.8563 85.3835 42.0689 85.3835 42.3133C85.3835 42.544 85.3247 42.7499 85.207 42.9309C85.0939 43.1074 84.9355 43.2567 84.7319 43.3789C84.5328 43.4965 84.3089 43.5825 84.06 43.6368C83.8111 43.6865 83.551 43.7001 83.2795 43.6775C83.008 43.6549 82.741 43.5961 82.4786 43.501C82.2161 43.4015 81.9741 43.259 81.7524 43.0734Z" fill="#151616"/>
<path d="M90.4246 43.6436L88.5989 41.2748L89.0061 41.0305L91.0015 43.6436H90.4246ZM87.1736 43.6436V38.8925H87.6622V43.6436H87.1736ZM87.5129 41.4649V41.0237H88.9993V41.4649H87.5129ZM89.0468 41.3223L88.5853 41.2409L90.3568 38.8925H90.8997L89.0468 41.3223Z" fill="#151616"/>
<path d="M94.3935 43.6843C94.036 43.6843 93.7035 43.6255 93.3958 43.5078C93.0926 43.3856 92.8279 43.216 92.6017 42.9988C92.38 42.7771 92.2058 42.5214 92.0791 42.2318C91.9569 41.9377 91.8958 41.6165 91.8958 41.268C91.8958 40.9196 91.9569 40.6006 92.0791 40.3111C92.2058 40.0169 92.38 39.7613 92.6017 39.5441C92.8279 39.3224 93.0926 39.1527 93.3958 39.0351C93.6989 38.9129 94.0315 38.8518 94.3935 38.8518C94.7509 38.8518 95.0813 38.9129 95.3844 39.0351C95.6876 39.1527 95.95 39.3201 96.1717 39.5373C96.398 39.7545 96.5722 40.0102 96.6943 40.3043C96.821 40.5984 96.8844 40.9196 96.8844 41.268C96.8844 41.6165 96.821 41.9377 96.6943 42.2318C96.5722 42.5259 96.398 42.7816 96.1717 42.9988C95.95 43.216 95.6876 43.3856 95.3844 43.5078C95.0813 43.6255 94.7509 43.6843 94.3935 43.6843ZM94.3935 43.2363C94.6786 43.2363 94.941 43.1888 95.1808 43.0938C95.4251 42.9943 95.6355 42.8562 95.812 42.6798C95.993 42.4988 96.1333 42.2907 96.2328 42.0554C96.3324 41.8155 96.3821 41.5531 96.3821 41.268C96.3821 40.983 96.3324 40.7228 96.2328 40.4875C96.1333 40.2477 95.993 40.0396 95.812 39.8631C95.6355 39.6821 95.4251 39.5441 95.1808 39.4491C94.941 39.3495 94.6786 39.2998 94.3935 39.2998C94.1084 39.2998 93.8437 39.3495 93.5994 39.4491C93.355 39.5441 93.1424 39.6821 92.9614 39.8631C92.7849 40.0396 92.6447 40.2477 92.5406 40.4875C92.441 40.7228 92.3913 40.983 92.3913 41.268C92.3913 41.5486 92.441 41.8088 92.5406 42.0486C92.6447 42.2884 92.7849 42.4988 92.9614 42.6798C93.1424 42.8562 93.355 42.9943 93.5994 43.0938C93.8437 43.1888 94.1084 43.2363 94.3935 43.2363Z" fill="#151616"/>
<path d="M101.415 43.2092L101.293 43.3449V38.8925H101.789V43.3449L101.653 43.2092H104.09L103.954 43.3449V38.8925H104.449V43.6436H98.6259V38.8925H99.1213V43.3449L98.9924 43.2092H101.415Z" fill="#151616"/>
<path d="M107.536 43.6436V39.1912L107.672 39.3269H105.866V38.8925H109.701V39.3269H107.902L108.031 39.1912V43.6436H107.536Z" fill="#151616"/>
<path d="M113.143 43.6843C112.785 43.6843 112.453 43.6255 112.145 43.5078C111.842 43.3856 111.577 43.216 111.351 42.9988C111.129 42.7771 110.955 42.5214 110.828 42.2318C110.706 41.9377 110.645 41.6165 110.645 41.268C110.645 40.9196 110.706 40.6006 110.828 40.3111C110.955 40.0169 111.129 39.7613 111.351 39.5441C111.577 39.3224 111.842 39.1527 112.145 39.0351C112.448 38.9129 112.781 38.8518 113.143 38.8518C113.5 38.8518 113.831 38.9129 114.134 39.0351C114.437 39.1527 114.699 39.3201 114.921 39.5373C115.147 39.7545 115.322 40.0102 115.444 40.3043C115.57 40.5984 115.634 40.9196 115.634 41.268C115.634 41.6165 115.57 41.9377 115.444 42.2318C115.322 42.5259 115.147 42.7816 114.921 42.9988C114.699 43.216 114.437 43.3856 114.134 43.5078C113.831 43.6255 113.5 43.6843 113.143 43.6843ZM113.143 43.2363C113.428 43.2363 113.69 43.1888 113.93 43.0938C114.174 42.9943 114.385 42.8562 114.561 42.6798C114.742 42.4988 114.883 42.2907 114.982 42.0554C115.082 41.8155 115.131 41.5531 115.131 41.268C115.131 40.983 115.082 40.7228 114.982 40.4875C114.883 40.2477 114.742 40.0396 114.561 39.8631C114.385 39.6821 114.174 39.5441 113.93 39.4491C113.69 39.3495 113.428 39.2998 113.143 39.2998C112.858 39.2998 112.593 39.3495 112.349 39.4491C112.104 39.5441 111.892 39.6821 111.711 39.8631C111.534 40.0396 111.394 40.2477 111.29 40.4875C111.19 40.7228 111.141 40.983 111.141 41.268C111.141 41.5486 111.19 41.8088 111.29 42.0486C111.394 42.2884 111.534 42.4988 111.711 42.6798C111.892 42.8562 112.104 42.9943 112.349 43.0938C112.593 43.1888 112.858 43.2363 113.143 43.2363Z" fill="#151616"/>
<path d="M117.375 43.6436V38.8925H119.35C119.853 38.8925 120.246 38.9966 120.531 39.2047C120.821 39.4084 120.966 39.7093 120.966 40.1074C120.966 40.5011 120.828 40.7997 120.552 41.0033C120.276 41.2024 119.914 41.302 119.466 41.302L119.581 41.1323C120.11 41.1323 120.513 41.2364 120.789 41.4445C121.065 41.6527 121.203 41.9581 121.203 42.3608C121.203 42.768 121.058 43.0848 120.769 43.311C120.484 43.5327 120.054 43.6436 119.479 43.6436H117.375ZM117.871 43.2431H119.479C119.882 43.2431 120.187 43.1685 120.396 43.0191C120.604 42.8698 120.708 42.6391 120.708 42.3268C120.708 42.0192 120.604 41.7929 120.396 41.6481C120.187 41.5033 119.882 41.4309 119.479 41.4309H117.871V43.2431ZM117.871 41.0441H119.323C119.69 41.0441 119.97 40.9717 120.165 40.8269C120.364 40.6776 120.463 40.4581 120.463 40.1685C120.463 39.8789 120.364 39.6617 120.165 39.517C119.97 39.3676 119.69 39.293 119.323 39.293H117.871V41.0441Z" fill="#151616"/>
<path d="M126.477 38.8925H126.972V43.6436H126.477V38.8925ZM123.504 43.6436H123.002V38.8925H123.504V43.6436ZM126.524 41.4513H123.45V41.0101H126.524V41.4513Z" fill="#151616"/>
<path d="M128.42 43.6436L130.592 38.8925H131.087L133.259 43.6436H132.73L130.735 39.1844H130.938L128.943 43.6436H128.42ZM129.275 42.3744L129.425 41.9671H132.187L132.336 42.3744H129.275Z" fill="#151616"/>
<path d="M142.602 43.6436L140.777 41.2748L141.184 41.0305L143.179 43.6436H142.602ZM139.351 43.6436V38.8925H139.84V43.6436H139.351ZM139.691 41.4649V41.0237H141.177V41.4649H139.691ZM141.225 41.3223L140.763 41.2409L142.535 38.8925H143.078L141.225 41.3223Z" fill="#151616"/>
<path d="M146.571 43.6843C146.214 43.6843 145.881 43.6255 145.574 43.5078C145.27 43.3856 145.006 43.216 144.779 42.9988C144.558 42.7771 144.384 42.5214 144.257 42.2318C144.135 41.9377 144.074 41.6165 144.074 41.268C144.074 40.9196 144.135 40.6006 144.257 40.3111C144.384 40.0169 144.558 39.7613 144.779 39.5441C145.006 39.3224 145.27 39.1527 145.574 39.0351C145.877 38.9129 146.209 38.8518 146.571 38.8518C146.929 38.8518 147.259 38.9129 147.562 39.0351C147.865 39.1527 148.128 39.3201 148.35 39.5373C148.576 39.7545 148.75 40.0102 148.872 40.3043C148.999 40.5984 149.062 40.9196 149.062 41.268C149.062 41.6165 148.999 41.9377 148.872 42.2318C148.75 42.5259 148.576 42.7816 148.35 42.9988C148.128 43.216 147.865 43.3856 147.562 43.5078C147.259 43.6255 146.929 43.6843 146.571 43.6843ZM146.571 43.2363C146.856 43.2363 147.119 43.1888 147.359 43.0938C147.603 42.9943 147.813 42.8562 147.99 42.6798C148.171 42.4988 148.311 42.2907 148.411 42.0554C148.51 41.8155 148.56 41.5531 148.56 41.268C148.56 40.983 148.51 40.7228 148.411 40.4875C148.311 40.2477 148.171 40.0396 147.99 39.8631C147.813 39.6821 147.603 39.5441 147.359 39.4491C147.119 39.3495 146.856 39.2998 146.571 39.2998C146.286 39.2998 146.022 39.3495 145.777 39.4491C145.533 39.5441 145.32 39.6821 145.139 39.8631C144.963 40.0396 144.822 40.2477 144.718 40.4875C144.619 40.7228 144.569 40.983 144.569 41.268C144.569 41.5486 144.619 41.8088 144.718 42.0486C144.822 42.2884 144.963 42.4988 145.139 42.6798C145.32 42.8562 145.533 42.9943 145.777 43.0938C146.022 43.1888 146.286 43.2363 146.571 43.2363Z" fill="#151616"/>
<path d="M154.279 38.8925H154.774V43.6436H154.279V38.8925ZM151.306 43.6436H150.804V38.8925H151.306V43.6436ZM154.326 41.4513H151.252V41.0101H154.326V41.4513Z" fill="#151616"/>
<path d="M158.998 43.6843C158.64 43.6843 158.31 43.6255 158.007 43.5078C157.704 43.3856 157.441 43.216 157.22 42.9988C156.998 42.7816 156.824 42.5259 156.697 42.2318C156.575 41.9377 156.514 41.6165 156.514 41.268C156.514 40.9196 156.575 40.5984 156.697 40.3043C156.824 40.0102 156.998 39.7545 157.22 39.5373C157.446 39.3201 157.71 39.1527 158.014 39.0351C158.317 38.9129 158.647 38.8518 159.005 38.8518C159.348 38.8518 159.672 38.9106 159.975 39.0283C160.278 39.1414 160.534 39.3133 160.742 39.5441L160.423 39.8631C160.229 39.664 160.014 39.5215 159.778 39.4355C159.543 39.345 159.29 39.2998 159.018 39.2998C158.733 39.2998 158.468 39.3495 158.224 39.4491C157.98 39.5441 157.767 39.6821 157.586 39.8631C157.405 40.0396 157.263 40.2477 157.158 40.4875C157.059 40.7228 157.009 40.983 157.009 41.268C157.009 41.5531 157.059 41.8155 157.158 42.0554C157.263 42.2907 157.405 42.4988 157.586 42.6798C157.767 42.8562 157.98 42.9943 158.224 43.0938C158.468 43.1888 158.733 43.2363 159.018 43.2363C159.29 43.2363 159.543 43.1911 159.778 43.1006C160.014 43.0101 160.229 42.8653 160.423 42.6662L160.742 42.9852C160.534 43.216 160.278 43.3902 159.975 43.5078C159.672 43.6255 159.346 43.6843 158.998 43.6843Z" fill="#151616"/>
<path d="M162.122 43.1752C162.352 43.2657 162.569 43.2884 162.773 43.2431C162.977 43.1933 163.164 43.0327 163.336 42.7612L163.567 42.3947L163.615 42.3336L165.434 38.8925H165.936L163.778 42.8698C163.633 43.1458 163.461 43.3517 163.262 43.4875C163.067 43.6232 162.859 43.6956 162.637 43.7046C162.42 43.7137 162.201 43.673 161.979 43.5825L162.122 43.1752ZM163.601 42.7884L161.545 38.8925H162.081L163.873 42.3744L163.601 42.7884Z" fill="#151616"/>
<path d="M166.867 43.6843C166.804 43.6843 166.743 43.6798 166.684 43.6707C166.625 43.6662 166.559 43.6549 166.487 43.6368L166.528 43.1888C166.605 43.2069 166.679 43.216 166.752 43.216C166.955 43.216 167.118 43.1368 167.24 42.9784C167.367 42.8155 167.462 42.5667 167.525 42.2318C167.589 41.8925 167.63 41.4581 167.648 40.9287L167.716 38.8925H170.939V43.6436H170.444V39.1912L170.573 39.3269H168.035L168.157 39.1844L168.096 40.9151C168.078 41.3902 168.044 41.802 167.994 42.1504C167.944 42.4943 167.872 42.7816 167.777 43.0124C167.682 43.2386 167.559 43.4083 167.41 43.5214C167.261 43.63 167.08 43.6843 166.867 43.6843Z" fill="#151616"/>
<path d="M175.074 40.5893C175.635 40.5893 176.063 40.716 176.357 40.9694C176.655 41.2183 176.805 41.5893 176.805 42.0825C176.805 42.5938 176.646 42.9829 176.33 43.2499C176.013 43.5123 175.56 43.6436 174.972 43.6436H173.085V38.8925H173.581V40.5893H175.074ZM174.959 43.2431C175.397 43.2431 175.73 43.1458 175.956 42.9513C176.187 42.7567 176.302 42.4716 176.302 42.0961C176.302 41.7205 176.189 41.4445 175.963 41.268C175.737 41.0871 175.402 40.9966 174.959 40.9966H173.581V43.2431H174.959Z" fill="#151616"/>
<path d="M178.953 43.6436V39.1912L179.089 39.3269H177.283V38.8925H181.118V39.3269H179.319L179.448 39.1912V43.6436H178.953Z" fill="#151616"/>
<path d="M181.605 43.6436L183.777 38.8925H184.272L186.444 43.6436H185.915L183.919 39.1844H184.123L182.127 43.6436H181.605ZM182.46 42.3744L182.609 41.9671H185.372L185.521 42.3744H182.46Z" fill="#151616"/>
<path d="M187.898 43.6436V38.8925H188.393V43.2092H191.264V38.8925H191.759V43.6436H187.898ZM192.044 44.7567V43.5078L192.173 43.6436H191.264V43.2092H192.513V44.7567H192.044Z" fill="#151616"/>
<path d="M194.054 43.6436V38.8925H194.55V43.6436H194.054Z" fill="#151616"/>
<path d="M199.563 43.6436V42.0689L199.699 42.2047H198.144C197.764 42.2047 197.439 42.1391 197.167 42.0079C196.9 41.8766 196.694 41.6911 196.549 41.4513C196.409 41.207 196.339 40.9151 196.339 40.5758C196.339 40.2138 196.416 39.9083 196.57 39.6595C196.724 39.4061 196.941 39.2161 197.221 39.0894C197.506 38.9581 197.837 38.8925 198.212 38.8925H200.058V43.6436H199.563ZM196.339 43.6436L197.506 41.9739H198.022L196.875 43.6436H196.339ZM199.563 41.9264V39.1844L199.699 39.3269H198.233C197.789 39.3269 197.445 39.4332 197.201 39.6459C196.961 39.8541 196.841 40.1595 196.841 40.5622C196.841 40.9513 196.954 41.2522 197.181 41.4649C197.407 41.673 197.742 41.7771 198.185 41.7771H199.699L199.563 41.9264Z" fill="#151616"/>
<path d="M206.845 43.6436V38.8925H207.34V41.0033H208.569V41.4581H207.34V43.6436H206.845ZM210.679 43.6843C210.34 43.6843 210.026 43.6255 209.736 43.5078C209.451 43.3856 209.2 43.216 208.983 42.9988C208.77 42.7816 208.605 42.5259 208.487 42.2318C208.369 41.9377 208.311 41.6165 208.311 41.268C208.311 40.9196 208.369 40.5984 208.487 40.3043C208.605 40.0102 208.77 39.7545 208.983 39.5373C209.2 39.3201 209.451 39.1527 209.736 39.0351C210.026 38.9129 210.34 38.8518 210.679 38.8518C211.019 38.8518 211.333 38.9129 211.623 39.0351C211.912 39.1527 212.164 39.3201 212.376 39.5373C212.589 39.7545 212.754 40.0102 212.872 40.3043C212.994 40.5984 213.055 40.9196 213.055 41.268C213.055 41.6165 212.994 41.9377 212.872 42.2318C212.754 42.5259 212.589 42.7816 212.376 42.9988C212.164 43.216 211.912 43.3856 211.623 43.5078C211.333 43.6255 211.019 43.6843 210.679 43.6843ZM210.679 43.2363C210.946 43.2363 211.193 43.1888 211.419 43.0938C211.65 42.9943 211.849 42.8562 212.016 42.6798C212.184 42.5033 212.315 42.2974 212.41 42.0621C212.505 41.8223 212.553 41.5576 212.553 41.268C212.553 40.9785 212.505 40.716 212.41 40.4807C212.315 40.2409 212.184 40.0328 212.016 39.8563C211.849 39.6798 211.65 39.5441 211.419 39.4491C211.193 39.3495 210.946 39.2998 210.679 39.2998C210.417 39.2998 210.17 39.3495 209.94 39.4491C209.713 39.5441 209.517 39.6798 209.349 39.8563C209.182 40.0328 209.05 40.2409 208.955 40.4807C208.86 40.716 208.813 40.9785 208.813 41.268C208.813 41.5576 208.86 41.8223 208.955 42.0621C209.05 42.2974 209.182 42.5033 209.349 42.6798C209.517 42.8562 209.713 42.9943 209.94 43.0938C210.17 43.1888 210.417 43.2363 210.679 43.2363Z" fill="#151616"/>
<path d="M214.798 43.6436V38.8925H216.576C216.979 38.8925 217.325 38.9581 217.614 39.0894C217.904 39.2161 218.126 39.4016 218.28 39.6459C218.438 39.8857 218.517 40.1776 218.517 40.5215C218.517 40.8563 218.438 41.1459 218.28 41.3902C218.126 41.63 217.904 41.8155 217.614 41.9468C217.325 42.078 216.979 42.1436 216.576 42.1436H215.076L215.3 41.906V43.6436H214.798ZM215.3 41.9468L215.076 41.7024H216.562C217.038 41.7024 217.397 41.6006 217.642 41.397C217.891 41.1889 218.015 40.897 218.015 40.5215C218.015 40.1414 217.891 39.8473 217.642 39.6391C217.397 39.431 217.038 39.3269 216.562 39.3269H215.076L215.3 39.0894V41.9468Z" fill="#151616"/>
<path d="M220.087 43.6436V38.8925H220.582V42.8291L223.623 38.8925H224.077V43.6436H223.582V39.7138L220.541 43.6436H220.087Z" fill="#151616"/>
<path d="M228.3 43.6843C227.943 43.6843 227.613 43.6255 227.31 43.5078C227.006 43.3856 226.744 43.216 226.522 42.9988C226.301 42.7816 226.126 42.5259 226 42.2318C225.877 41.9377 225.816 41.6165 225.816 41.268C225.816 40.9196 225.877 40.5984 226 40.3043C226.126 40.0102 226.301 39.7545 226.522 39.5373C226.748 39.3201 227.013 39.1527 227.316 39.0351C227.62 38.9129 227.95 38.8518 228.307 38.8518C228.651 38.8518 228.975 38.9106 229.278 39.0283C229.581 39.1414 229.837 39.3133 230.045 39.5441L229.726 39.8631C229.531 39.664 229.316 39.5215 229.081 39.4355C228.846 39.345 228.592 39.2998 228.321 39.2998C228.036 39.2998 227.771 39.3495 227.527 39.4491C227.282 39.5441 227.07 39.6821 226.889 39.8631C226.708 40.0396 226.565 40.2477 226.461 40.4875C226.362 40.7228 226.312 40.983 226.312 41.268C226.312 41.5531 226.362 41.8155 226.461 42.0554C226.565 42.2907 226.708 42.4988 226.889 42.6798C227.07 42.8562 227.282 42.9943 227.527 43.0938C227.771 43.1888 228.036 43.2363 228.321 43.2363C228.592 43.2363 228.846 43.1911 229.081 43.1006C229.316 43.0101 229.531 42.8653 229.726 42.6662L230.045 42.9852C229.837 43.216 229.581 43.3902 229.278 43.5078C228.975 43.6255 228.649 43.6843 228.3 43.6843Z" fill="#151616"/>
<path d="M232.509 43.6436V39.1912L232.645 39.3269H230.839V38.8925H234.674V39.3269H232.875L233.004 39.1912V43.6436H232.509Z" fill="#151616"/>
<path d="M235.161 43.6436L237.333 38.8925H237.828L240 43.6436H239.471L237.475 39.1844H237.679L235.683 43.6436H235.161ZM236.016 42.3744L236.165 41.9671H238.928L239.077 42.3744H236.016Z" fill="#151616"/>
</g>
<defs>
<clipPath id="clip0_460_248">
<rect width="240" height="48" fill="white"/>
</clipPath>
</defs>
</svg>
