<svg width="280" height="56" viewBox="0 0 280 56" fill="none" xmlns="http://www.w3.org/2000/svg">
<path d="M35.1554 2.83136C35.1554 4.37293 35.031 5.34821 34.8443 5.34821C34.6576 5.34821 33.8176 5.97742 33.0087 6.76394L31.5154 8.17967L22.8354 6.6381C18.0443 5.78866 14.0621 5.19091 13.9687 5.28529C13.8443 5.41113 10.7021 12.3639 6.96875 20.7325L0.186523 35.928L1.2443 38.0359C3.82652 43.1639 9.9243 46.8763 15.711 46.8763C21.6532 46.8763 27.8132 42.9437 30.3332 37.5325L31.111 35.8965L25.511 23.4066C22.431 16.5168 19.9732 10.8538 20.0354 10.7909C20.1287 10.6651 27.191 11.8291 30.2087 12.4583C30.7687 12.5527 31.111 12.9302 31.391 13.6853C33.0087 18.2156 38.5154 19.3168 42.031 15.8561L43.151 14.755L48.7821 15.7617C51.8932 16.328 54.4443 16.8943 54.4443 17.0201C54.4443 17.146 51.7999 23.155 48.5643 30.3909L42.6843 43.5729L43.7421 45.6179C48.7199 55.2134 61.4132 57.3212 69.2843 49.8965C71.2754 48.0403 73.4221 44.6741 73.4221 43.5415C73.391 43.2269 70.4043 36.3055 66.7643 28.1572L60.1376 13.3707L53.1687 12.0808C49.3421 11.3887 45.7021 10.6965 45.0799 10.5707C44.0843 10.3819 43.8354 10.1617 43.1199 8.65158C42.4976 7.42462 41.8754 6.70102 40.911 6.07181L39.5421 5.19091L39.511 2.73698V0.314503H37.3332H35.1554V2.83136ZM38.9821 10.0044C40.2576 11.137 39.1687 13.528 37.3643 13.528C35.0932 13.528 34.4087 10.2875 36.4932 9.4381C37.3021 9.12349 38.2043 9.31226 38.9821 10.0044ZM21.6221 25.2628C24.1421 30.9257 26.1332 35.6448 26.071 35.7078C25.9776 35.8021 21.2176 35.8336 15.4621 35.8021L5.03986 35.7078L9.45763 25.7977C11.8843 20.355 14.2799 15.0381 14.7465 13.9999L15.6176 12.1123L16.3021 13.528C16.7065 14.3145 19.1021 19.5999 21.6221 25.2628ZM63.4665 31.3662C66.2976 37.6898 68.6621 43.0066 68.6932 43.1325C68.7554 43.2898 64.0265 43.4156 58.1776 43.4156C51.6443 43.4156 47.5999 43.2898 47.6621 43.1325C48.0665 41.8741 58.0532 19.8201 58.1776 19.8201C58.271 19.8201 60.6354 25.0111 63.4665 31.3662ZM21.6532 40.8673C18.9465 42.6606 13.9999 42.9123 10.7954 41.4336C9.79986 40.9932 9.02208 40.5527 9.02208 40.4583C9.02208 40.3325 12.071 40.2696 15.8043 40.2696H22.5554L21.6532 40.8673ZM64.3687 48.292C63.4976 49.1729 60.4799 50.0224 58.1776 50.0224C55.9376 50.0224 53.2932 49.2988 51.8932 48.3235C51.2399 47.8516 51.6754 47.8201 58.0221 47.8201C64.0887 47.8201 64.8043 47.883 64.3687 48.292Z" fill="white"/>
<path d="M83.3779 5.19103V10.036L87.3602 10.1304L91.3113 10.2247L91.4046 11.0742C91.4979 11.8922 91.6224 11.9551 92.8979 11.9551H94.2979L94.2046 9.81575C94.1113 7.77081 94.0802 7.70789 93.2713 7.6135L92.4002 7.51912V3.90114V0.314627H91.0002H89.6002V3.9326V7.55058H87.889H86.1779V3.9326V0.314627H84.7779H83.3779V5.19103Z" fill="white"/>
<path d="M97.3779 5.19098V10.0674H100.645H103.911V8.80896V7.55053H102.013C100.396 7.55053 100.147 7.48761 100.24 6.98424C100.302 6.57525 100.707 6.41794 101.827 6.35502C103.258 6.26064 103.289 6.22918 103.289 5.15952V4.08985H101.733C100.396 4.08985 100.178 3.99547 100.178 3.46064C100.178 2.89435 100.396 2.83143 102.045 2.83143H103.911V1.573V0.314573H100.645H97.3779V5.19098Z" fill="white"/>
<path d="M107.333 5.19098V10.0674H108.733H110.133V8.33705V6.60671H111.689H113.244V8.33705V10.0674H114.644H116.044V5.19098V0.314573H114.644H113.244V2.20221V4.08985H111.689H110.133V2.20221V0.314573H108.733H107.333V5.19098Z" fill="white"/>
<path d="M119.155 1.573V2.83143H120.4H121.644V6.4494V10.0674H123.044H124.444V6.4494V2.83143H125.689H126.933V1.573V0.314573H123.044H119.155V1.573Z" fill="white"/>
<path d="M130.045 5.19098V10.0674H131.445H132.845V8.68311V7.3303L134.649 7.14154C136.92 6.88985 138.134 5.72581 138.134 3.74379C138.134 1.16401 136.765 0.314573 132.472 0.314573H130.045V5.19098ZM134.836 2.92581C135.8 3.61794 135.334 4.56176 133.996 4.65615C132.876 4.75053 132.845 4.75053 132.845 3.64941C132.845 2.67412 132.938 2.51682 133.56 2.51682C133.965 2.51682 134.525 2.70558 134.836 2.92581Z" fill="white"/>
<path d="M166.568 19.3169C166.226 20.1978 166.599 20.9214 167.346 20.9214C168.342 20.9214 168.871 20.0405 168.342 19.3798C167.813 18.7506 166.786 18.7191 166.568 19.3169Z" fill="white"/>
<path d="M169.897 19.3166C169.244 20.1031 169.773 21.1413 170.737 21.0154C171.453 20.9525 171.577 20.7638 171.577 19.9772C171.577 19.2536 171.422 19.002 170.924 18.939C170.582 18.8761 170.115 19.0649 169.897 19.3166Z" fill="white"/>
<path d="M132.066 22.7776C129.702 24.2248 128.893 26.8674 130.106 29.227C130.946 30.8944 131.973 31.7124 133.653 32.0899C137.075 32.8764 140.155 30.454 140.093 26.9933C140.031 23.0922 135.488 20.7012 132.066 22.7776ZM136.484 25.2315C137.417 26.3012 137.604 27.2135 137.075 28.2517C135.737 30.863 131.662 29.3528 132.377 26.5214C132.844 24.6652 135.271 23.9101 136.484 25.2315Z" fill="white"/>
<path d="M156.706 22.6515C153.968 24.1616 153.191 27.874 155.151 30.2335C156.271 31.5549 157.64 32.1841 159.475 32.1841C164.608 32.1841 166.506 25.9863 162.337 22.8717C161.062 21.9279 158.231 21.8335 156.706 22.6515ZM160.782 25.0425C163.053 26.647 161.497 30.1706 158.791 29.6358C157.795 29.447 156.8 28.1571 156.8 27.056C156.8 25.9549 158.168 24.5391 159.257 24.5391C159.724 24.5391 160.408 24.7594 160.782 25.0425Z" fill="white"/>
<path d="M196.933 22.3684C195.875 22.8088 194.444 24.1931 194.07 25.1684C192.764 28.5976 195.19 32.1841 198.893 32.1841C202.781 32.1841 205.27 28.7863 203.933 25.2942C202.968 22.683 199.608 21.2987 196.933 22.3684ZM200.386 24.9481C201.661 25.9234 201.91 27.4964 200.977 28.6919C199.795 30.2335 197.306 29.856 196.684 28.0313C196.279 26.8987 196.435 26.2695 197.337 25.2313C198.053 24.4762 199.577 24.3189 200.386 24.9481Z" fill="white"/>
<path d="M221.822 22.6832C217.715 25.0743 218.618 31.0518 223.253 32.09C229.133 33.4428 232.306 25.6405 227.08 22.6832C225.586 21.8023 223.284 21.8338 221.822 22.6832ZM226.115 25.1686C227.049 26.0495 227.235 27.1192 226.675 28.2518C226.053 29.5102 224.746 29.9507 223.44 29.3844C220.951 28.3462 221.76 24.5394 224.466 24.5394C225.026 24.5394 225.742 24.8226 226.115 25.1686Z" fill="white"/>
<path d="M250.289 22.4627C249.013 23.0289 247.333 25.011 247.271 26.0492C247.146 28.7548 247.737 30.1391 249.511 31.3346C251.844 32.9076 255.111 32.3413 256.791 30.1076C259.933 25.9233 255.173 20.3233 250.289 22.4627ZM254.115 25.1683C255.577 26.5525 255.266 28.6289 253.493 29.384C252.186 29.9503 250.88 29.5098 250.257 28.2514C249.013 25.8289 252.155 23.3436 254.115 25.1683Z" fill="white"/>
<path d="M83.3779 27.2134V32.0898H84.7779H86.1779V28.4719V24.8539H87.889H89.6002V28.4719V32.0898H91.0002H92.4002V27.2134V22.337H87.889H83.3779V27.2134Z" fill="white"/>
<path d="M95.8223 27.2134V32.0898H97.2223H98.6223V30.5168V28.9438H100.022C102.604 28.9438 103.911 27.7168 103.911 25.3258C103.911 24.4764 103.662 23.9415 103.009 23.2494C102.107 22.3685 102.013 22.337 98.9645 22.337H95.8223V27.2134ZM101.049 25.4516C101.173 26.3325 100.676 26.7415 99.4934 26.7415C98.7156 26.7415 98.6223 26.6471 98.6223 25.6089C98.6223 24.5078 98.6534 24.5078 99.8045 24.6022C100.738 24.6651 100.987 24.8224 101.049 25.4516Z" fill="white"/>
<path d="M107.396 27.0246C106.338 29.6358 105.467 31.8381 105.467 31.9324C105.467 32.0268 106.089 32.0897 106.836 32.0897C108.018 32.0897 108.236 31.9954 108.391 31.3032C108.578 30.5796 108.702 30.5167 110.6 30.5167C112.498 30.5167 112.653 30.5796 112.933 31.3032C113.182 31.9639 113.431 32.0897 114.489 32.0897C116.013 32.0897 116.076 32.5931 113.742 26.7414L112.062 22.4942L110.693 22.3999L109.293 22.3055L107.396 27.0246ZM111.502 27.5909C111.72 28.2515 111.627 28.3145 110.662 28.3145H109.573L110.102 26.8987C110.569 25.5774 110.6 25.5459 110.942 26.2066C111.129 26.5841 111.409 27.2133 111.502 27.5909Z" fill="white"/>
<path d="M118.533 27.2134V32.0898H121.333C124.382 32.0898 126.031 31.6179 126.591 30.5797C127.12 29.573 126.995 28.0629 126.342 27.4022C125.782 26.8359 125.751 26.7101 126.187 25.8606C126.498 25.1685 126.56 24.6966 126.342 24.1303C125.782 22.6831 124.88 22.337 121.582 22.337H118.533V27.2134ZM123.511 24.6966C124.04 25.3258 123.604 25.7977 122.391 25.8921C121.613 25.955 121.489 25.8292 121.395 25.0741C121.302 24.3191 121.395 24.2247 122.204 24.2247C122.702 24.2247 123.293 24.4449 123.511 24.6966ZM123.76 28.2831C124.009 28.4404 124.133 28.8179 124.071 29.1325C124.009 29.573 123.667 29.7618 122.64 29.8247C121.364 29.9191 121.333 29.8876 121.333 28.9752C121.333 28.0943 121.427 28 122.36 28C122.889 28 123.542 28.1258 123.76 28.2831Z" fill="white"/>
<path d="M143.111 27.2134V32.0898H145.88C147.374 32.0898 149.054 31.9325 149.614 31.7438C151.387 31.1146 152.102 28.5977 150.858 27.3393C150.391 26.8674 150.298 26.5842 150.547 26.3325C150.734 26.1438 150.889 25.4516 150.889 24.8224C150.889 23.9101 150.702 23.4696 150.08 22.9977C149.365 22.4314 148.805 22.337 146.191 22.337H143.111V27.2134ZM148.089 24.6966C148.618 25.3258 148.182 25.7977 146.969 25.8921C146.191 25.955 146.067 25.8292 145.974 25.0741C145.88 24.3191 145.974 24.2247 146.782 24.2247C147.28 24.2247 147.871 24.4449 148.089 24.6966ZM148.338 28.2831C148.587 28.4404 148.711 28.8179 148.649 29.1325C148.587 29.573 148.245 29.7618 147.218 29.8247C145.942 29.9191 145.911 29.8876 145.911 28.9752C145.911 28.0943 146.005 28 146.938 28C147.467 28 148.12 28.1258 148.338 28.2831Z" fill="white"/>
<path d="M167.688 27.2134V32.0898H169.088H170.488V27.2134V22.337H169.088H167.688V27.2134Z" fill="white"/>
<path d="M182.311 24.1303C182.279 26.7416 181.844 28.3775 180.942 29.1011C180.226 29.6989 180.133 29.982 180.133 31.8697V33.9775H181.533C182.871 33.9775 182.933 33.9461 182.933 33.0337V32.0899H185.733H188.533V33.0337C188.533 33.9461 188.595 33.9775 189.933 33.9775H191.333V31.7753C191.333 29.636 191.302 29.573 190.555 29.573H189.777V25.9551V22.3371H186.044H182.311V24.1303ZM186.977 27.2135V29.573H185.546C184.302 29.573 184.146 29.5101 184.333 29.0068C184.457 28.7236 184.644 27.6539 184.737 26.6472L184.862 24.8539H185.919H186.977V27.2135Z" fill="white"/>
<path d="M207.199 27.2134V32.0898H208.599H209.999V28.4719V24.8539H211.71H213.421V28.4719V32.0898H214.821H216.221V27.2134V22.337H211.71H207.199V27.2134Z" fill="white"/>
<path d="M233.334 22.6516C233.334 22.9977 232.836 28 232.556 30.5797L232.369 32.0898H233.769H235.138L235.356 29.9505C235.449 28.7865 235.574 27.6224 235.636 27.3707C235.667 27.1191 236.071 28.0314 236.507 29.4157L237.316 31.9325H238.498H239.68L240.489 29.4157L241.267 26.8988L241.547 29.4786L241.827 32.0898H243.165C243.911 32.0898 244.534 31.9955 244.534 31.8382C244.534 31.7123 244.316 29.6359 244.067 27.2134C243.818 24.791 243.6 22.6831 243.6 22.5573C243.6 22.4314 242.947 22.337 242.169 22.4L240.738 22.4943L239.618 25.2943C238.747 27.5595 238.467 28 238.249 27.4966C238.125 27.182 237.596 25.8921 237.129 24.6966L236.258 22.4943L234.796 22.4C233.894 22.337 233.334 22.4314 233.334 22.6516Z" fill="white"/>
<path d="M260.712 27.2134V32.0898H262.112H263.512V28.4719V24.8539H265.379H267.245V23.5955V22.337H263.979H260.712V27.2134Z" fill="white"/>
<path d="M270.355 27.2134V32.0898H271.724H273.124L274.991 29.3528L276.889 26.6471V29.3528V32.0898H278.289H279.689V27.2134V22.337H278.227L276.733 22.3685L275.022 24.9168L273.311 27.4651L273.218 24.8853L273.124 22.337H271.755H270.355V27.2134Z" fill="white"/>
<path d="M83.3779 40.7415C83.3779 41.1505 94.4846 41.2134 181.533 41.2134C268.582 41.2134 279.689 41.1505 279.689 40.7415C279.689 40.3325 268.582 40.2696 181.533 40.2696C94.4846 40.2696 83.3779 40.3325 83.3779 40.7415Z" fill="white"/>
<path d="M82.999 53.0235V47.7996H87.0698V48.2697H83.5794V49.9787H85.4002C86.0574 49.9787 86.5557 50.1056 86.8949 50.3593C87.2394 50.6081 87.4117 50.9762 87.4117 51.4638C87.4117 51.9663 87.2262 52.3519 86.8552 52.6205C86.4894 52.8892 85.962 53.0235 85.2729 53.0235H82.999ZM83.5794 52.5832H85.265C85.7791 52.5832 86.1661 52.4912 86.4258 52.3071C86.6908 52.118 86.8234 51.8444 86.8234 51.4862C86.8234 50.7747 86.3039 50.419 85.265 50.419H83.5794V52.5832Z" fill="white"/>
<path d="M89.9288 50.1354H92.8706V50.6056H89.9288V50.1354ZM89.9924 52.5459H93.3397V53.0235H89.4041V47.7996H93.2204V48.2772H89.9924V52.5459Z" fill="white"/>
<path d="M94.6212 52.3967L94.8359 52.0011C95.0797 52.2001 95.3527 52.3494 95.6548 52.4489C95.9622 52.5434 96.2697 52.5932 96.5771 52.5982C96.8845 52.5982 97.1655 52.5559 97.4199 52.4713C97.6796 52.3867 97.889 52.2623 98.048 52.0981C98.207 51.929 98.2865 51.725 98.2865 51.4862C98.2865 51.1827 98.1567 50.9489 97.8969 50.7847C97.6425 50.6205 97.2874 50.5384 96.8315 50.5384H95.6389V50.0907H96.7997C97.192 50.0907 97.4967 50.0135 97.7141 49.8593C97.9367 49.7001 98.048 49.4812 98.048 49.2026C98.048 49.0036 97.9844 48.8344 97.8572 48.6951C97.7353 48.5508 97.5657 48.4414 97.3483 48.3667C97.1363 48.2871 96.8978 48.2449 96.6328 48.2399C96.3677 48.2299 96.0921 48.2623 95.8059 48.3369C95.525 48.4065 95.252 48.5185 94.9869 48.6727L94.7961 48.2175C95.1248 48.0334 95.4666 47.9065 95.8218 47.8369C96.1769 47.7623 96.5214 47.7374 96.8554 47.7623C97.1893 47.7871 97.4888 47.8593 97.7538 47.9787C98.0241 48.0981 98.2388 48.2548 98.3978 48.4488C98.5569 48.6429 98.6364 48.8742 98.6364 49.1429C98.6364 49.3916 98.5675 49.6105 98.4296 49.7996C98.2971 49.9887 98.109 50.1354 97.8651 50.2399C97.6266 50.3394 97.343 50.3892 97.0144 50.3892L97.0462 50.225C97.4172 50.225 97.7379 50.2797 98.0082 50.3892C98.2839 50.4986 98.4959 50.6553 98.6443 50.8593C98.798 51.0583 98.8749 51.2922 98.8749 51.5608C98.8749 51.8146 98.806 52.0409 98.6682 52.2399C98.5356 52.434 98.3501 52.5982 98.1116 52.7325C97.8784 52.8618 97.616 52.9564 97.3245 53.0161C97.0329 53.0708 96.7282 53.0857 96.4101 53.0608C96.0921 53.036 95.7794 52.9713 95.4719 52.8668C95.1645 52.7574 94.8809 52.6006 94.6212 52.3967Z" fill="white"/>
<path d="M104.78 53.0235L102.642 50.419L103.119 50.1504L105.456 53.0235H104.78ZM100.972 53.0235V47.7996H101.544V53.0235H100.972ZM101.369 50.628V50.1429H103.111V50.628H101.369ZM103.166 50.4713L102.626 50.3817L104.701 47.7996H105.337L103.166 50.4713Z" fill="white"/>
<path d="M109.43 53.0683C109.011 53.0683 108.621 53.0036 108.261 52.8743C107.906 52.7399 107.596 52.5534 107.331 52.3146C107.071 52.0708 106.867 51.7897 106.718 51.4713C106.575 51.1479 106.504 50.7946 106.504 50.4116C106.504 50.0285 106.575 49.6777 106.718 49.3593C106.867 49.0359 107.071 48.7548 107.331 48.516C107.596 48.2722 107.906 48.0856 108.261 47.9563C108.616 47.822 109.006 47.7548 109.43 47.7548C109.848 47.7548 110.235 47.822 110.59 47.9563C110.946 48.0856 111.253 48.2697 111.513 48.5085C111.778 48.7473 111.982 49.0284 112.125 49.3518C112.273 49.6752 112.347 50.0285 112.347 50.4116C112.347 50.7946 112.273 51.1479 112.125 51.4713C111.982 51.7947 111.778 52.0758 111.513 52.3146C111.253 52.5534 110.946 52.7399 110.59 52.8743C110.235 53.0036 109.848 53.0683 109.43 53.0683ZM109.43 52.5758C109.763 52.5758 110.071 52.5235 110.352 52.419C110.638 52.3096 110.885 52.1579 111.091 51.9638C111.303 51.7648 111.468 51.5359 111.584 51.2772C111.701 51.0136 111.759 50.725 111.759 50.4116C111.759 50.0981 111.701 49.812 111.584 49.5533C111.468 49.2896 111.303 49.0608 111.091 48.8668C110.885 48.6677 110.638 48.516 110.352 48.4115C110.071 48.3021 109.763 48.2473 109.43 48.2473C109.096 48.2473 108.786 48.3021 108.499 48.4115C108.213 48.516 107.964 48.6677 107.752 48.8668C107.545 49.0608 107.381 49.2896 107.259 49.5533C107.142 49.812 107.084 50.0981 107.084 50.4116C107.084 50.72 107.142 51.0061 107.259 51.2698C107.381 51.5335 107.545 51.7648 107.752 51.9638C107.964 52.1579 108.213 52.3096 108.499 52.419C108.786 52.5235 109.096 52.5758 109.43 52.5758Z" fill="white"/>
<path d="M117.655 52.5459L117.512 52.6952V47.7996H118.093V52.6952L117.934 52.5459H120.788L120.629 52.6952V47.7996H121.209V53.0235H114.388V47.7996H114.968V52.6952L114.817 52.5459H117.655Z" fill="white"/>
<path d="M124.825 53.0235V48.1279L124.984 48.2772H122.869V47.7996H127.361V48.2772H125.254L125.405 48.1279V53.0235H124.825Z" fill="white"/>
<path d="M131.393 53.0683C130.975 53.0683 130.585 53.0036 130.225 52.8743C129.869 52.7399 129.559 52.5534 129.294 52.3146C129.035 52.0708 128.83 51.7897 128.682 51.4713C128.539 51.1479 128.467 50.7946 128.467 50.4116C128.467 50.0285 128.539 49.6777 128.682 49.3593C128.83 49.0359 129.035 48.7548 129.294 48.516C129.559 48.2722 129.869 48.0856 130.225 47.9563C130.58 47.822 130.969 47.7548 131.393 47.7548C131.812 47.7548 132.199 47.822 132.554 47.9563C132.909 48.0856 133.217 48.2697 133.476 48.5085C133.741 48.7473 133.945 49.0284 134.089 49.3518C134.237 49.6752 134.311 50.0285 134.311 50.4116C134.311 50.7946 134.237 51.1479 134.089 51.4713C133.945 51.7947 133.741 52.0758 133.476 52.3146C133.217 52.5534 132.909 52.7399 132.554 52.8743C132.199 53.0036 131.812 53.0683 131.393 53.0683ZM131.393 52.5758C131.727 52.5758 132.035 52.5235 132.316 52.419C132.602 52.3096 132.848 52.1579 133.055 51.9638C133.267 51.7648 133.431 51.5359 133.548 51.2772C133.665 51.0136 133.723 50.725 133.723 50.4116C133.723 50.0981 133.665 49.812 133.548 49.5533C133.431 49.2896 133.267 49.0608 133.055 48.8668C132.848 48.6677 132.602 48.516 132.316 48.4115C132.035 48.3021 131.727 48.2473 131.393 48.2473C131.059 48.2473 130.749 48.3021 130.463 48.4115C130.177 48.516 129.928 48.6677 129.716 48.8668C129.509 49.0608 129.345 49.2896 129.223 49.5533C129.106 49.812 129.048 50.0981 129.048 50.4116C129.048 50.72 129.106 51.0061 129.223 51.2698C129.345 51.5335 129.509 51.7648 129.716 51.9638C129.928 52.1579 130.177 52.3096 130.463 52.419C130.749 52.5235 131.059 52.5758 131.393 52.5758Z" fill="white"/>
<path d="M136.351 53.0235V47.7996H138.665C139.253 47.7996 139.714 47.914 140.048 48.1429C140.388 48.3667 140.557 48.6976 140.557 49.1354C140.557 49.5683 140.396 49.8966 140.072 50.1205C139.749 50.3394 139.325 50.4489 138.8 50.4489L138.935 50.2623C139.555 50.2623 140.027 50.3767 140.351 50.6056C140.674 50.8344 140.836 51.1703 140.836 51.6131C140.836 52.0608 140.666 52.4091 140.327 52.6579C139.993 52.9016 139.489 53.0235 138.816 53.0235H136.351ZM136.932 52.5832H138.816C139.288 52.5832 139.646 52.5011 139.889 52.337C140.133 52.1728 140.255 51.919 140.255 51.5758C140.255 51.2374 140.133 50.9887 139.889 50.8295C139.646 50.6703 139.288 50.5907 138.816 50.5907H136.932V52.5832ZM136.932 50.1653H138.633C139.063 50.1653 139.391 50.0857 139.619 49.9265C139.852 49.7623 139.969 49.521 139.969 49.2026C139.969 48.8842 139.852 48.6454 139.619 48.4862C139.391 48.322 139.063 48.2399 138.633 48.2399H136.932V50.1653Z" fill="white"/>
<path d="M147.013 47.7996H147.594V53.0235H147.013V47.7996ZM143.531 53.0235H142.943V47.7996H143.531V53.0235ZM147.069 50.613H143.467V50.128H147.069V50.613Z" fill="white"/>
<path d="M149.29 53.0235L151.834 47.7996H152.414L154.959 53.0235H154.338L152.001 48.1205H152.239L149.902 53.0235H149.29ZM150.292 51.628L150.466 51.1802H153.702L153.877 51.628H150.292Z" fill="white"/>
<path d="M165.903 53.0235L163.765 50.419L164.242 50.1504L166.579 53.0235H165.903ZM162.095 53.0235V47.7996H162.668V53.0235H162.095ZM162.493 50.628V50.1429H164.234V50.628H162.493ZM164.289 50.4713L163.749 50.3817L165.824 47.7996H166.46L164.289 50.4713Z" fill="white"/>
<path d="M170.553 53.0683C170.134 53.0683 169.744 53.0036 169.384 52.8743C169.029 52.7399 168.719 52.5534 168.454 52.3146C168.194 52.0708 167.99 51.7897 167.842 51.4713C167.698 51.1479 167.627 50.7946 167.627 50.4116C167.627 50.0285 167.698 49.6777 167.842 49.3593C167.99 49.0359 168.194 48.7548 168.454 48.516C168.719 48.2722 169.029 48.0856 169.384 47.9563C169.739 47.822 170.129 47.7548 170.553 47.7548C170.972 47.7548 171.358 47.822 171.714 47.9563C172.069 48.0856 172.376 48.2697 172.636 48.5085C172.901 48.7473 173.105 49.0284 173.248 49.3518C173.397 49.6752 173.471 50.0285 173.471 50.4116C173.471 50.7946 173.397 51.1479 173.248 51.4713C173.105 51.7947 172.901 52.0758 172.636 52.3146C172.376 52.5534 172.069 52.7399 171.714 52.8743C171.358 53.0036 170.972 53.0683 170.553 53.0683ZM170.553 52.5758C170.887 52.5758 171.194 52.5235 171.475 52.419C171.761 52.3096 172.008 52.1579 172.215 51.9638C172.427 51.7648 172.591 51.5359 172.707 51.2772C172.824 51.0136 172.882 50.725 172.882 50.4116C172.882 50.0981 172.824 49.812 172.707 49.5533C172.591 49.2896 172.427 49.0608 172.215 48.8668C172.008 48.6677 171.761 48.516 171.475 48.4115C171.194 48.3021 170.887 48.2473 170.553 48.2473C170.219 48.2473 169.909 48.3021 169.623 48.4115C169.336 48.516 169.087 48.6677 168.875 48.8668C168.668 49.0608 168.504 49.2896 168.382 49.5533C168.266 49.812 168.207 50.0981 168.207 50.4116C168.207 50.72 168.266 51.0061 168.382 51.2698C168.504 51.5335 168.668 51.7648 168.875 51.9638C169.087 52.1579 169.336 52.3096 169.623 52.419C169.909 52.5235 170.219 52.5758 170.553 52.5758Z" fill="white"/>
<path d="M179.582 47.7996H180.162V53.0235H179.582V47.7996ZM176.099 53.0235H175.511V47.7996H176.099V53.0235ZM179.637 50.613H176.036V50.128H179.637V50.613Z" fill="white"/>
<path d="M185.11 53.0683C184.691 53.0683 184.304 53.0036 183.949 52.8743C183.594 52.7399 183.286 52.5534 183.027 52.3146C182.767 52.0758 182.563 51.7947 182.414 51.4713C182.271 51.1479 182.2 50.7946 182.2 50.4116C182.2 50.0285 182.271 49.6752 182.414 49.3518C182.563 49.0284 182.767 48.7473 183.027 48.5085C183.292 48.2697 183.602 48.0856 183.957 47.9563C184.312 47.822 184.699 47.7548 185.118 47.7548C185.52 47.7548 185.899 47.8195 186.255 47.9488C186.61 48.0732 186.909 48.2623 187.153 48.516L186.779 48.8668C186.551 48.6478 186.3 48.4911 186.024 48.3966C185.748 48.2971 185.452 48.2473 185.134 48.2473C184.8 48.2473 184.49 48.3021 184.203 48.4115C183.917 48.516 183.668 48.6677 183.456 48.8668C183.244 49.0608 183.077 49.2896 182.955 49.5533C182.838 49.812 182.78 50.0981 182.78 50.4116C182.78 50.725 182.838 51.0136 182.955 51.2772C183.077 51.5359 183.244 51.7648 183.456 51.9638C183.668 52.1579 183.917 52.3096 184.203 52.419C184.49 52.5235 184.8 52.5758 185.134 52.5758C185.452 52.5758 185.748 52.526 186.024 52.4265C186.3 52.327 186.551 52.1678 186.779 51.9489L187.153 52.2996C186.909 52.5534 186.61 52.7449 186.255 52.8743C185.899 53.0036 185.518 53.0683 185.11 53.0683Z" fill="white"/>
<path d="M188.769 52.5086C189.039 52.6081 189.294 52.633 189.532 52.5832C189.771 52.5285 189.991 52.3519 190.192 52.0534L190.462 51.6504L190.518 51.5832L192.649 47.7996H193.237L190.709 52.1728C190.539 52.4763 190.338 52.7026 190.105 52.8519C189.877 53.0011 189.633 53.0807 189.373 53.0907C189.119 53.1007 188.862 53.0559 188.602 52.9564L188.769 52.5086ZM190.502 52.0832L188.093 47.7996H188.721L190.82 51.628L190.502 52.0832Z" fill="white"/>
<path d="M194.328 53.0683C194.254 53.0683 194.182 53.0633 194.114 53.0534C194.045 53.0484 193.968 53.036 193.883 53.0161L193.931 52.5235C194.021 52.5434 194.108 52.5534 194.193 52.5534C194.432 52.5534 194.622 52.4663 194.765 52.2922C194.914 52.1131 195.025 51.8394 195.099 51.4713C195.174 51.0981 195.221 50.6205 195.243 50.0384L195.322 47.7996H199.099V53.0235H198.518V48.1279L198.669 48.2772H195.696L195.839 48.1205L195.767 50.0235C195.746 50.5459 195.706 50.9986 195.648 51.3817C195.59 51.7598 195.505 52.0758 195.394 52.3295C195.282 52.5783 195.139 52.7648 194.964 52.8892C194.789 53.0086 194.577 53.0683 194.328 53.0683Z" fill="white"/>
<path d="M203.942 49.6653C204.599 49.6653 205.1 49.8046 205.445 50.0832C205.794 50.3568 205.969 50.7648 205.969 51.3071C205.969 51.8693 205.784 52.2972 205.413 52.5907C205.042 52.8793 204.512 53.0235 203.823 53.0235H201.612V47.7996H202.193V49.6653H203.942ZM203.807 52.5832C204.321 52.5832 204.711 52.4763 204.976 52.2623C205.246 52.0484 205.381 51.735 205.381 51.322C205.381 50.9091 205.249 50.6056 204.983 50.4116C204.718 50.2125 204.326 50.113 203.807 50.113H202.193V52.5832H203.807Z" fill="white"/>
<path d="M208.486 53.0235V48.1279L208.645 48.2772H206.53V47.7996H211.022V48.2772H208.915L209.066 48.1279V53.0235H208.486Z" fill="white"/>
<path d="M211.593 53.0235L214.137 47.7996H214.717L217.261 53.0235H216.641L214.304 48.1205H214.542L212.205 53.0235H211.593ZM212.594 51.628L212.769 51.1802H216.005L216.18 51.628H212.594Z" fill="white"/>
<path d="M218.964 53.0235V47.7996H219.544V52.5459H222.908V47.7996H223.488V53.0235H218.964ZM223.822 54.2474V52.8743L223.973 53.0235H222.908V52.5459H224.371V54.2474H223.822Z" fill="white"/>
<path d="M226.177 53.0235V47.7996H226.757V53.0235H226.177Z" fill="white"/>
<path d="M232.629 53.0235V51.2922L232.788 51.4414H230.968C230.522 51.4414 230.141 51.3693 229.823 51.225C229.51 51.0807 229.269 50.8767 229.099 50.613C228.935 50.3444 228.853 50.0235 228.853 49.6503C228.853 49.2523 228.943 48.9165 229.123 48.6429C229.303 48.3643 229.558 48.1553 229.886 48.016C230.22 47.8717 230.607 47.7996 231.047 47.7996H233.21V53.0235H232.629ZM228.853 53.0235L230.22 51.1877H230.825L229.481 53.0235H228.853ZM232.629 51.1354V48.1205L232.788 48.2772H231.071C230.552 48.2772 230.149 48.3941 229.862 48.6279C229.582 48.8568 229.441 49.1926 229.441 49.6354C229.441 50.0633 229.574 50.3941 229.839 50.628C230.104 50.8568 230.496 50.9713 231.015 50.9713H232.788L232.629 51.1354Z" fill="white"/>
<path d="M241.159 53.0235V47.7996H241.74V50.1205H243.179V50.6205H241.74V53.0235H241.159ZM245.652 53.0683C245.254 53.0683 244.886 53.0036 244.546 52.8743C244.213 52.7399 243.918 52.5534 243.664 52.3146C243.415 52.0758 243.221 51.7947 243.084 51.4713C242.946 51.1479 242.877 50.7946 242.877 50.4116C242.877 50.0285 242.946 49.6752 243.084 49.3518C243.221 49.0284 243.415 48.7473 243.664 48.5085C243.918 48.2697 244.213 48.0856 244.546 47.9563C244.886 47.822 245.254 47.7548 245.652 47.7548C246.049 47.7548 246.418 47.822 246.757 47.9563C247.096 48.0856 247.39 48.2697 247.639 48.5085C247.888 48.7473 248.082 49.0284 248.22 49.3518C248.363 49.6752 248.434 50.0285 248.434 50.4116C248.434 50.7946 248.363 51.1479 248.22 51.4713C248.082 51.7947 247.888 52.0758 247.639 52.3146C247.39 52.5534 247.096 52.7399 246.757 52.8743C246.418 53.0036 246.049 53.0683 245.652 53.0683ZM245.652 52.5758C245.964 52.5758 246.253 52.5235 246.518 52.419C246.789 52.3096 247.022 52.1579 247.218 51.9638C247.414 51.7698 247.568 51.5434 247.679 51.2847C247.79 51.021 247.846 50.73 247.846 50.4116C247.846 50.0931 247.79 49.8046 247.679 49.5459C247.568 49.2822 247.414 49.0533 247.218 48.8593C247.022 48.6653 246.789 48.516 246.518 48.4115C246.253 48.3021 245.964 48.2473 245.652 48.2473C245.344 48.2473 245.055 48.3021 244.785 48.4115C244.52 48.516 244.289 48.6653 244.093 48.8593C243.897 49.0533 243.743 49.2822 243.632 49.5459C243.521 49.8046 243.465 50.0931 243.465 50.4116C243.465 50.73 243.521 51.021 243.632 51.2847C243.743 51.5434 243.897 51.7698 244.093 51.9638C244.289 52.1579 244.52 52.3096 244.785 52.419C245.055 52.5235 245.344 52.5758 245.652 52.5758Z" fill="white"/>
<path d="M250.476 53.0235V47.7996H252.559C253.031 47.7996 253.436 47.8717 253.776 48.016C254.115 48.1553 254.375 48.3593 254.555 48.6279C254.74 48.8916 254.833 49.2125 254.833 49.5906C254.833 49.9588 254.74 50.2772 254.555 50.5459C254.375 50.8096 254.115 51.0136 253.776 51.1578C253.436 51.3021 253.031 51.3743 252.559 51.3743H250.802L251.065 51.1131V53.0235H250.476ZM251.065 51.1578L250.802 50.8892H252.543C253.1 50.8892 253.521 50.7772 253.808 50.5533C254.099 50.3245 254.245 50.0036 254.245 49.5906C254.245 49.1727 254.099 48.8493 253.808 48.6205C253.521 48.3916 253.1 48.2772 252.543 48.2772H250.802L251.065 48.016V51.1578Z" fill="white"/>
<path d="M256.672 53.0235V47.7996H257.252V52.128L260.814 47.7996H261.347V53.0235H260.766V48.7026L257.204 53.0235H256.672Z" fill="white"/>
<path d="M266.294 53.0683C265.875 53.0683 265.488 53.0036 265.133 52.8743C264.778 52.7399 264.47 52.5534 264.211 52.3146C263.951 52.0758 263.747 51.7947 263.598 51.4713C263.455 51.1479 263.384 50.7946 263.384 50.4116C263.384 50.0285 263.455 49.6752 263.598 49.3518C263.747 49.0284 263.951 48.7473 264.211 48.5085C264.476 48.2697 264.786 48.0856 265.141 47.9563C265.496 47.822 265.883 47.7548 266.302 47.7548C266.705 47.7548 267.084 47.8195 267.439 47.9488C267.794 48.0732 268.093 48.2623 268.337 48.516L267.963 48.8668C267.735 48.6478 267.484 48.4911 267.208 48.3966C266.932 48.2971 266.636 48.2473 266.318 48.2473C265.984 48.2473 265.674 48.3021 265.387 48.4115C265.101 48.516 264.852 48.6677 264.64 48.8668C264.428 49.0608 264.261 49.2896 264.139 49.5533C264.022 49.812 263.964 50.0981 263.964 50.4116C263.964 50.725 264.022 51.0136 264.139 51.2772C264.261 51.5359 264.428 51.7648 264.64 51.9638C264.852 52.1579 265.101 52.3096 265.387 52.419C265.674 52.5235 265.984 52.5758 266.318 52.5758C266.636 52.5758 266.932 52.526 267.208 52.4265C267.484 52.327 267.735 52.1678 267.963 51.9489L268.337 52.2996C268.093 52.5534 267.794 52.7449 267.439 52.8743C267.084 53.0036 266.702 53.0683 266.294 53.0683Z" fill="white"/>
<path d="M271.223 53.0235V48.1279L271.382 48.2772H269.268V47.7996H273.76V48.2772H271.653L271.804 48.1279V53.0235H271.223Z" fill="white"/>
<path d="M274.33 53.0235L276.874 47.7996H277.455L279.999 53.0235H279.379L277.041 48.1205H277.28L274.942 53.0235H274.33ZM275.332 51.628L275.507 51.1802H278.743L278.918 51.628H275.332Z" fill="white"/>
</svg>
