<svg width="18" height="18" viewBox="0 0 18 18" fill="none" xmlns="http://www.w3.org/2000/svg">
<g opacity="0.5">
<path d="M12.6164 3.8508C12.0665 3.22045 11.736 2.39853 11.736 1.5H11.047M12.6164 3.8508C13.1174 4.42547 13.7959 4.84341 14.5684 5.00706C14.8085 5.0593 15.059 5.08719 15.32 5.08719V7.66435C13.9838 7.66435 12.745 7.23601 11.7359 6.51158V11.7531C11.7359 14.3721 9.60622 16.5 6.99294 16.5C5.62537 16.5 4.39005 15.9149 3.52359 14.985C2.73369 14.1352 2.25 12.9999 2.25 11.7531C2.25 9.17236 4.31698 7.06882 6.87809 7.01309M12.6164 3.8508C12.603 3.84207 12.5896 3.83326 12.5763 3.82435M5.23917 13.0138C4.98167 12.6586 4.82856 12.2232 4.82856 11.7496C4.82856 10.555 5.79941 9.58333 6.993 9.58333C7.2157 9.58333 7.43142 9.62162 7.63326 9.68433V7.05144C7.42445 7.02355 7.21221 7.00612 6.993 7.00612C6.9547 7.00612 6.64637 7.02663 6.60809 7.02663M11.0434 1.5H9.15734L9.15385 11.8331C9.11212 12.9894 8.15862 13.9193 6.99294 13.9193C6.26913 13.9193 5.63233 13.5606 5.23564 13.0173" stroke="white" stroke-linejoin="round"/>
</g>
</svg>
