<svg width="18" height="18" viewBox="0 0 18 18" fill="none" xmlns="http://www.w3.org/2000/svg">
<g opacity="0.5">
<path fill-rule="evenodd" clip-rule="evenodd" d="M15.4462 3.34499C16.1566 3.53515 16.7149 4.09339 16.905 4.80376C17.2486 6.09001 17.25 8.77527 17.25 8.77527C17.25 8.77527 17.25 11.4605 16.905 12.7468C16.7149 13.4572 16.1566 14.0154 15.4462 14.2055C14.16 14.5505 8.99997 14.5505 8.99997 14.5505C8.99997 14.5505 3.84001 14.5505 2.55375 14.2055C1.84339 14.0154 1.28515 13.4572 1.09499 12.7468C0.75 11.4605 0.75 8.77527 0.75 8.77527C0.75 8.77527 0.75 6.09001 1.09499 4.80376C1.28515 4.09339 1.84339 3.53515 2.55375 3.34499C3.84001 3 8.99997 3 8.99997 3C8.99997 3 14.16 3 15.4462 3.34499ZM11.635 8.7755L7.34841 11.2502V6.30076L11.635 8.7755Z" stroke="white" stroke-linejoin="round"/>
</g>
</svg>
