<svg width="18" height="18" viewBox="0 0 18 18" fill="none" xmlns="http://www.w3.org/2000/svg">
<g clip-path="url(#clip0_488_13281)">
<path d="M1.05196 5.41654C1.09134 4.55591 1.2261 4.00085 1.40834 3.5297L1.41079 3.52319C1.59138 3.04375 1.87428 2.60942 2.23981 2.25043L2.24493 2.2454L2.24997 2.24027C2.60926 1.87427 3.04374 1.59165 3.52276 1.41154L3.53102 1.40838C4.0011 1.22557 4.55508 1.09131 5.41642 1.05194M1.05196 5.41654C1.01055 6.33608 1 6.62112 1 9.00527C1 11.39 1.00997 11.6744 1.05194 12.5941M1.05196 5.41654L1.05196 5.64849M1.41154 14.4878C1.59165 14.9668 1.87427 15.4013 2.24027 15.7606L2.24539 15.7656L2.25042 15.7707C2.60942 16.1362 3.04376 16.4192 3.52321 16.5998L3.53037 16.6025C4.00088 16.7849 4.55512 16.9192 5.41642 16.9586M1.41154 14.4878L1.40838 14.4795C1.22557 14.0094 1.09131 13.4555 1.05194 12.5941M1.41154 14.4878L1.40074 14.4309M1.05194 12.5941L1.06604 12.6684M1.05194 12.5941L1.05194 12.3616M1.40074 14.4309L1.06604 12.6684M1.40074 14.4309C1.25859 14.0554 1.11221 13.5314 1.06604 12.6684M1.40074 14.4309C1.40573 14.4441 1.41071 14.4571 1.41568 14.4699C1.59595 14.9559 1.88159 15.3959 2.25206 15.7584C2.61441 16.1288 3.05429 16.4144 3.54012 16.5947C3.93 16.7466 4.47937 16.9053 5.41629 16.9482C6.36179 16.9912 6.65391 17 9.00527 17C11.3566 17 11.649 16.9912 12.5945 16.9482C13.5326 16.9052 14.0813 16.7456 14.4698 16.5949C14.9559 16.4147 15.396 16.129 15.7585 15.7584C16.1289 15.3961 16.4144 14.9562 16.5947 14.4704C16.7466 14.0805 16.9053 13.5312 16.9482 12.5943C16.9912 11.6488 17 11.356 17 9.00527C17 6.6545 16.9912 6.36155 16.9482 5.41604C16.905 4.47307 16.7439 3.92352 16.5925 3.53467C16.3946 3.02377 16.1437 2.63737 15.7579 2.2516C15.3729 1.86736 14.9875 1.61625 14.4763 1.41814C14.086 1.26557 13.5361 1.10552 12.5945 1.06237C12.5126 1.05864 12.4356 1.05517 12.3618 1.05194M1.06604 12.6684C1.06473 12.644 1.06351 12.6194 1.06237 12.5945C1.05864 12.5126 1.05517 12.4355 1.05194 12.3616M5.41642 1.05194C6.33618 1.00997 6.62112 1 9.00527 1C11.3894 1 11.6742 1.01054 12.5937 1.05194M5.41642 1.05194L5.64897 1.05194M12.5937 1.05194L12.3618 1.05194M12.5937 1.05194C13.4545 1.09131 14.0097 1.22605 14.4809 1.40831L14.4874 1.41079C14.9668 1.59138 15.4011 1.87428 15.7601 2.23981L15.7651 2.24488L15.7702 2.24987C16.1358 2.60889 16.4186 3.04333 16.5991 3.52291L16.6022 3.53102C16.785 4.0011 16.9192 4.55508 16.9586 5.41642M5.64897 1.05194L12.3618 1.05194M5.64897 1.05194C6.4278 1.01788 6.85826 1.01055 9.00527 1.01055C11.1525 1.01055 11.5828 1.01788 12.3618 1.05194M5.64897 1.05194C5.57505 1.05517 5.498 1.05864 5.41604 1.06237C4.47795 1.10536 3.92923 1.26496 3.54073 1.41564C3.0528 1.59652 2.61121 1.88367 2.24796 2.25631C1.86579 2.64005 1.61564 3.0246 1.41817 3.53423C1.26559 3.92447 1.10551 4.47464 1.06236 5.41629C1.05864 5.49798 1.05518 5.5748 1.05196 5.64849M16.9586 12.5941C16.9192 13.4554 16.785 14.0097 16.6025 14.4802L16.5998 14.4874C16.4192 14.9668 16.1363 15.4011 15.7707 15.7601L15.7656 15.7652L15.7606 15.7703C15.4013 16.1363 14.9668 16.4189 14.4878 16.599L14.4795 16.6022C14.0094 16.785 13.4555 16.9192 12.5941 16.9586M1.05194 12.3616C1.01788 11.5828 1.01055 11.1523 1.01055 9.00527C1.01055 6.85761 1.01788 6.42774 1.05196 5.64849M1.05194 12.3616L1.05196 5.64849M7.58148 12.4426C8.03289 12.6296 8.51669 12.7258 9.00528 12.7258C9.99203 12.7258 10.9384 12.3338 11.6361 11.6361C12.3338 10.9384 12.7258 9.99203 12.7258 9.00527C12.7258 8.01852 12.3338 7.07218 11.6361 6.37444C10.9384 5.67671 9.99203 5.28472 9.00528 5.28472C8.51669 5.28472 8.03288 5.38095 7.58148 5.56793C7.13009 5.75491 6.71994 6.02896 6.37445 6.37444C6.02896 6.71993 5.75491 7.13008 5.56793 7.58148C5.38096 8.03288 5.28472 8.51668 5.28472 9.00527C5.28472 9.49386 5.38096 9.97767 5.56793 10.4291C5.75491 10.8805 6.02896 11.2906 6.37445 11.6361C6.71994 11.9816 7.13009 12.2556 7.58148 12.4426ZM6.36616 6.36616C7.0661 5.66622 8.01542 5.273 9.00528 5.273C9.99514 5.273 10.9445 5.66622 11.6444 6.36616C12.3443 7.06609 12.7376 8.01541 12.7376 9.00527C12.7376 9.99514 12.3443 10.9445 11.6444 11.6444C10.9445 12.3443 9.99514 12.7376 9.00528 12.7376C8.01542 12.7376 7.0661 12.3443 6.36616 11.6444C5.66622 10.9445 5.273 9.99514 5.273 9.00527C5.273 8.01541 5.66622 7.06609 6.36616 6.36616ZM14.8392 4.40404C14.8392 4.68735 14.7266 4.95907 14.5263 5.1594C14.326 5.35974 14.0542 5.47229 13.7709 5.47229C13.4876 5.47229 13.2159 5.35974 13.0156 5.1594C12.8152 4.95907 12.7027 4.68735 12.7027 4.40404C12.7027 4.12072 12.8152 3.84901 13.0156 3.64867C13.2159 3.44833 13.4876 3.33579 13.7709 3.33579C14.0542 3.33579 14.326 3.44833 14.5263 3.64867C14.7266 3.84901 14.8392 4.12072 14.8392 4.40404Z" stroke="#151616" stroke-linejoin="round"/>
</g>
<defs>
<clipPath id="clip0_488_13281">
<rect width="18" height="18" fill="white"/>
</clipPath>
</defs>
</svg>
