<svg width="25" height="26" viewBox="0 0 25 26" fill="none" xmlns="http://www.w3.org/2000/svg">
<g id="fi_1944502" clip-path="url(#clip0_460_302)">
<path id="Vector" d="M17.7644 14.9239C17.6406 14.8542 17.5003 14.7753 17.3313 14.6736C17.237 14.6166 17.1184 14.5387 16.9927 14.4563C16.3476 14.0328 15.8587 13.7331 15.4426 13.7331C15.3452 13.7331 15.253 13.7496 15.1689 13.782C14.8044 13.9224 14.505 14.2975 14.2155 14.6601C14.1094 14.793 13.9576 14.9832 13.8654 15.0682C13.4999 15.0018 12.729 14.5242 11.897 13.6922C11.0641 12.8593 10.5864 12.0875 10.5208 11.7229C10.6058 11.6304 10.7975 11.4774 10.9312 11.3706C11.2924 11.0822 11.666 10.7839 11.8072 10.4205C11.9873 9.95356 11.6572 9.39512 11.1331 8.59658C11.0506 8.4709 10.9727 8.3522 10.9161 8.25859C10.814 8.08892 10.7351 7.94853 10.6655 7.8248C10.3797 7.31689 10.1909 6.9812 9.48135 6.9812C9.02085 6.9812 8.36978 7.41636 7.92876 7.8479C7.28784 8.4752 6.93481 9.19941 6.93481 9.88857C6.93604 11.7604 7.98066 13.9057 9.80088 15.7766C9.804 15.7797 9.80713 15.7805 9.81035 15.7836C11.6813 17.6039 13.8277 18.645 15.6995 18.645H15.7002C16.3884 18.645 17.1129 18.296 17.7401 17.6554C18.172 17.2145 18.6078 16.5681 18.6078 16.1079C18.6078 15.3985 18.2723 15.2097 17.7644 14.9239ZM15.6997 17.6779C14.1053 17.6768 12.1604 16.7105 10.4962 15.0932C8.87866 13.4288 7.91245 11.4837 7.91143 9.88955C7.91143 8.92524 9.16279 8.0084 9.49004 7.95815C9.55689 7.95845 9.59194 7.9624 9.60864 7.96523C9.6519 8.01504 9.73789 8.16787 9.81445 8.30395C9.88374 8.4271 9.97002 8.58042 10.0799 8.76299C10.1463 8.873 10.2291 8.99912 10.3167 9.13262C10.4826 9.38535 10.8161 9.89336 10.8723 10.1102C10.7783 10.2433 10.4866 10.4761 10.322 10.6075C9.90054 10.944 9.53657 11.2345 9.53657 11.6451C9.5376 12.6369 10.8151 13.9914 11.2066 14.3829C11.5981 14.7744 12.9526 16.0519 13.9465 16.0529C14.3544 16.0516 14.6437 15.6891 14.9788 15.2694C15.1109 15.104 15.3452 14.8105 15.4788 14.717C15.6954 14.7729 16.204 15.1067 16.4569 15.2728C16.5904 15.3604 16.7165 15.4431 16.8272 15.51C17.0091 15.6194 17.1624 15.7057 17.2856 15.775C17.4216 15.8516 17.5745 15.9376 17.6243 15.9809C17.6271 15.9975 17.6311 16.0326 17.6314 16.0994C17.5808 16.4263 16.6636 17.6768 15.6997 17.6779Z" fill="#151616"/>
<path id="Vector_2" d="M25.3473 13.4603C25.3046 10.1738 23.9854 7.06819 21.6328 4.71556C19.2368 2.31957 16.0741 1 12.7272 1C9.49641 1 6.47402 2.24318 4.21668 4.50046C2.21355 6.50359 0.984602 9.17519 0.755998 12.0232C0.539192 14.7254 1.22707 17.4599 2.69594 19.759L0.690136 25.1808C0.605967 25.4084 0.66508 25.6642 0.840653 25.8318C0.956019 25.9419 1.10714 26 1.26064 26C1.34067 26 1.42144 25.9768 1.498 25.9443L6.72196 23.7213C8.71621 24.9625 10.9965 25.6022 13.338 25.6022H13.3383C16.5685 25.6022 19.5909 24.3739 21.8479 22.1168C24.1472 19.8175 25.39 16.7527 25.3473 13.4603ZM20.9877 21.2716C18.9603 23.299 16.2435 24.4155 13.338 24.4155C11.1259 24.4154 8.97382 23.768 7.11422 22.543C7.01339 22.4766 6.89687 22.4428 6.77968 22.4428C6.69922 22.4428 6.61845 22.4587 6.54225 22.4911L2.31949 24.2821L3.94326 19.893C4.01119 19.7093 3.9865 19.5041 3.87697 19.3418C0.892407 14.9202 1.39699 9.04025 5.07673 5.36057C7.10431 3.33299 9.82128 2.2163 12.7272 2.2163C15.7492 2.2163 18.6065 3.40931 20.7727 5.57561C22.8998 7.70268 24.0925 10.5084 24.131 13.4761C24.1695 16.4377 23.0532 19.2062 20.9877 21.2716Z" fill="#151616"/>
</g>
<defs>
<clipPath id="clip0_460_302">
<rect width="25" height="25" fill="white" transform="translate(0 0.5)"/>
</clipPath>
</defs>
</svg>
